<svg width="60" height="61" viewBox="0 0 60 61" fill="none" xmlns="http://www.w3.org/2000/svg">
<path d="M47.0958 60.0042H12.9042C5.74982 60.0042 0 54.2101 0 47.0992V12.9051C0 5.75022 5.79371 0 12.9042 0H47.0958C54.2502 0 60 5.79411 60 12.9051V47.0992C60 54.254 54.2063 60.0042 47.0958 60.0042Z" fill="#52B963"/>
<path d="M42.663 17.6445C39.415 14.3963 35.0697 12.5527 30.4172 12.5527C20.8927 12.5527 13.1239 20.3221 13.1239 29.8473C13.1239 32.876 13.9139 35.8609 15.4501 38.4946L12.9922 47.4491L22.1656 45.0349C24.7113 46.3957 27.5204 47.1419 30.4172 47.1419C39.9417 47.1419 47.7106 39.3725 47.7106 29.8473C47.7106 25.2383 45.911 20.8928 42.663 17.6006M30.4172 44.2009C27.8276 44.2009 25.3258 43.4986 23.0873 42.1817L22.5606 41.8745L17.118 43.2791L18.5664 37.9678L18.2153 37.4411C16.7669 35.1586 16.0207 32.5249 16.0207 29.8034C16.0207 21.8584 22.4728 15.4498 30.4172 15.4498C34.2797 15.4498 37.8788 16.9422 40.6001 19.6637C43.3214 22.3852 44.8137 25.9846 44.8137 29.8473C44.8137 37.7923 38.3616 44.2448 30.4172 44.2448V44.2009ZM38.3177 33.4467C37.8788 33.2272 35.772 32.1737 35.377 32.042C34.982 31.9104 34.6747 31.8226 34.4114 32.2615C34.1041 32.7005 33.3141 33.6662 33.0507 33.9734C32.7874 34.2807 32.5679 34.2807 32.129 34.0612C31.6901 33.8417 30.2855 33.4028 28.6615 31.9104C27.3887 30.7691 26.5108 29.3645 26.2475 28.9255C25.9841 28.4866 26.2475 28.2671 26.4231 28.0476L27.0814 27.3014C27.3009 27.038 27.3887 26.8625 27.5204 26.5991C27.652 26.2918 27.6081 26.0723 27.5204 25.8529C27.4326 25.6334 26.5547 23.5264 26.2036 22.6486C25.8525 21.8145 25.5013 21.9023 25.238 21.9023C24.9746 21.9023 24.7113 21.9023 24.404 21.9023C24.0968 21.9023 23.6579 21.9901 23.2629 22.4291C22.8678 22.868 21.7705 23.9215 21.7705 26.0284C21.7705 28.1354 23.3067 30.1985 23.5262 30.5057C23.7457 30.813 26.5547 35.1586 30.9 37.0461C31.9095 37.485 32.7435 37.7484 33.358 37.9678C34.4114 38.319 35.3331 38.2312 36.0792 38.1434C36.9132 38.0117 38.625 37.0899 38.9761 36.0804C39.3272 35.0708 39.3272 34.1929 39.2394 34.0173C39.1517 33.8417 38.8444 33.71 38.4055 33.5345L38.3177 33.4467Z" fill="white"/>
</svg>
