<svg width="60" height="60" viewBox="0 0 60 60" fill="none" xmlns="http://www.w3.org/2000/svg">
<path d="M29.1602 30.3607C29.1602 31.3548 29.966 32.1608 30.9602 32.1608C31.9543 32.1608 32.7602 31.3548 32.7602 30.3607C32.7602 29.3666 31.9543 28.5605 30.9602 28.5605C29.966 28.5605 29.1602 29.3666 29.1602 30.3607Z" fill="#445EAA"/>
<g clip-path="url(#clip0_1_92)">
<path d="M30.0098 0C17.4851 0 13.8221 0.0129258 13.11 0.0719998C10.5398 0.285709 8.94039 0.69052 7.19792 1.55826C5.85511 2.22527 4.79607 2.9984 3.75088 4.08218C1.8474 6.05866 0.693768 8.49024 0.276145 11.3807C0.0731167 12.7838 0.0140422 13.07 0.00204598 20.2374C-0.00255748 22.6265 0.00204598 25.7708 0.00204598 29.9882C0.00204598 42.5062 0.015879 46.1665 0.0758828 46.8774C0.283538 49.3791 0.675761 50.9531 1.50638 52.6748C3.09378 55.9704 6.12549 58.4445 9.69715 59.3676C10.9338 59.6861 12.2997 59.8615 14.0533 59.9446C14.7962 59.9769 22.3686 60 29.9456 60C37.5227 60 45.0997 59.9908 45.8242 59.9538C47.8546 59.8583 49.0336 59.7 50.3372 59.363C53.9319 58.4352 56.9083 55.9981 58.528 52.6563C59.3424 50.9761 59.7554 49.3422 59.9423 46.971C59.9829 46.4541 60 38.2117 60 29.9804C60 21.7477 59.9815 13.5205 59.9409 13.0035C59.7517 10.5941 59.3387 8.97399 58.498 7.26152C57.8081 5.85971 57.0421 4.81284 55.93 3.74248C53.9453 1.84631 51.5181 0.692357 48.6257 0.275097C47.2242 0.0724537 46.9451 0.0124498 39.7741 0H30.0098Z" fill="url(#paint0_radial_1_92)"/>
<path d="M30.0098 0C17.4851 0 13.8221 0.0129258 13.11 0.0719998C10.5398 0.285709 8.94039 0.69052 7.19792 1.55826C5.85511 2.22527 4.79607 2.9984 3.75088 4.08218C1.8474 6.05866 0.693768 8.49024 0.276145 11.3807C0.0731167 12.7838 0.0140422 13.07 0.00204598 20.2374C-0.00255748 22.6265 0.00204598 25.7708 0.00204598 29.9882C0.00204598 42.5062 0.015879 46.1665 0.0758828 46.8774C0.283538 49.3791 0.675761 50.9531 1.50638 52.6748C3.09378 55.9704 6.12549 58.4445 9.69715 59.3676C10.9338 59.6861 12.2997 59.8615 14.0533 59.9446C14.7962 59.9769 22.3686 60 29.9456 60C37.5227 60 45.0997 59.9908 45.8242 59.9538C47.8546 59.8583 49.0336 59.7 50.3372 59.363C53.9319 58.4352 56.9083 55.9981 58.528 52.6563C59.3424 50.9761 59.7554 49.3422 59.9423 46.971C59.9829 46.4541 60 38.2117 60 29.9804C60 21.7477 59.9815 13.5205 59.9409 13.0035C59.7517 10.5941 59.3387 8.97399 58.498 7.26152C57.8081 5.85971 57.0421 4.81284 55.93 3.74248C53.9453 1.84631 51.5181 0.692357 48.6257 0.275097C47.2242 0.0724537 46.9451 0.0124498 39.7741 0H30.0098Z" fill="url(#paint1_radial_1_92)"/>
<path d="M30.0098 0C17.4851 0 13.8221 0.0129258 13.11 0.0719998C10.5398 0.285709 8.94039 0.69052 7.19792 1.55826C5.85511 2.22527 4.79607 2.9984 3.75088 4.08218C1.8474 6.05866 0.693768 8.49024 0.276145 11.3807C0.0731167 12.7838 0.0140422 13.07 0.00204598 20.2374C-0.00255748 22.6265 0.00204598 25.7708 0.00204598 29.9882C0.00204598 42.5062 0.015879 46.1665 0.0758828 46.8774C0.283538 49.3791 0.675761 50.9531 1.50638 52.6748C3.09378 55.9704 6.12549 58.4445 9.69715 59.3676C10.9338 59.6861 12.2997 59.8615 14.0533 59.9446C14.7962 59.9769 22.3686 60 29.9456 60C37.5227 60 45.0997 59.9908 45.8242 59.9538C47.8546 59.8583 49.0336 59.7 50.3372 59.363C53.9319 58.4352 56.9083 55.9981 58.528 52.6563C59.3424 50.9761 59.7554 49.3422 59.9423 46.971C59.9829 46.4541 60 38.2117 60 29.9804C60 21.7477 59.9815 13.5205 59.9409 13.0035C59.7517 10.5941 59.3387 8.97399 58.498 7.26152C57.8081 5.85971 57.0421 4.81284 55.93 3.74248C53.9453 1.84631 51.5181 0.692357 48.6257 0.275097C47.2242 0.0724537 46.9451 0.0124498 39.7741 0H30.0098Z" fill="url(#paint2_radial_1_92)"/>
<path d="M30.0098 0C17.4851 0 13.8221 0.0129258 13.11 0.0719998C10.5398 0.285709 8.94039 0.69052 7.19792 1.55826C5.85511 2.22527 4.79607 2.9984 3.75088 4.08218C1.8474 6.05866 0.693768 8.49024 0.276145 11.3807C0.0731167 12.7838 0.0140422 13.07 0.00204598 20.2374C-0.00255748 22.6265 0.00204598 25.7708 0.00204598 29.9882C0.00204598 42.5062 0.015879 46.1665 0.0758828 46.8774C0.283538 49.3791 0.675761 50.9531 1.50638 52.6748C3.09378 55.9704 6.12549 58.4445 9.69715 59.3676C10.9338 59.6861 12.2997 59.8615 14.0533 59.9446C14.7962 59.9769 22.3686 60 29.9456 60C37.5227 60 45.0997 59.9908 45.8242 59.9538C47.8546 59.8583 49.0336 59.7 50.3372 59.363C53.9319 58.4352 56.9083 55.9981 58.528 52.6563C59.3424 50.9761 59.7554 49.3422 59.9423 46.971C59.9829 46.4541 60 38.2117 60 29.9804C60 21.7477 59.9815 13.5205 59.9409 13.0035C59.7517 10.5941 59.3387 8.97399 58.498 7.26152C57.8081 5.85971 57.0421 4.81284 55.93 3.74248C53.9453 1.84631 51.5181 0.692357 48.6257 0.275097C47.2242 0.0724537 46.9451 0.0124498 39.7741 0H30.0098Z" fill="url(#paint3_radial_1_92)"/>
<path d="M30.012 7.70508C23.9534 7.70508 23.193 7.73154 20.8134 7.83976C18.4385 7.94843 16.8175 8.32414 15.399 8.87542C13.9318 9.44478 12.6871 10.2064 11.4472 11.4459C10.2063 12.685 9.44404 13.9287 8.87239 15.3944C8.31932 16.8123 7.94285 18.4326 7.83598 20.8048C7.72955 23.1826 7.70166 23.9429 7.70166 29.997C7.70166 36.0511 7.72862 36.8085 7.83643 39.1863C7.94567 41.5595 8.32165 43.1794 8.87285 44.5968C9.44311 46.0629 10.2053 47.3066 11.4458 48.5457C12.6853 49.7857 13.9299 50.5492 15.3962 51.1185C16.8156 51.6698 18.4371 52.0455 20.8116 52.1542C23.1912 52.2624 23.951 52.2888 30.0092 52.2888C36.0682 52.2888 36.8263 52.2624 39.2058 52.1542C41.5808 52.0455 43.2037 51.6698 44.6231 51.1185C46.0898 50.5492 47.3326 49.7857 48.5721 48.5457C49.813 47.3066 50.5753 46.0629 51.1469 44.5972C51.6953 43.1794 52.0718 41.559 52.1833 39.1868C52.2902 36.809 52.3181 36.0511 52.3181 29.997C52.3181 23.9428 52.2902 23.1831 52.1833 20.8053C52.0718 18.4321 51.6953 16.8123 51.1469 15.3949C50.5753 13.9287 49.813 12.685 48.5721 11.4459C47.3312 10.2059 46.0903 9.4443 44.6217 8.8754C43.1995 8.32414 41.5775 7.94843 39.2026 7.83976C36.823 7.73154 36.0654 7.70508 30.005 7.70508H30.012ZM28.0107 11.7223C28.6047 11.7213 29.2674 11.7223 30.012 11.7223C35.9683 11.7223 36.6743 11.7436 39.0264 11.8504C41.2015 11.9498 42.382 12.313 43.1684 12.6181C44.2094 13.0221 44.9517 13.5051 45.732 14.2854C46.5128 15.0656 46.9961 15.8087 47.4014 16.8489C47.7068 17.6338 48.0707 18.8134 48.1696 20.9869C48.2765 23.3368 48.2998 24.0427 48.2998 29.9919C48.2998 35.941 48.2765 36.6469 48.1696 38.9969C48.0702 41.1703 47.7068 42.3499 47.4014 43.1348C46.9971 44.1751 46.5128 44.9158 45.732 45.6955C44.9512 46.4758 44.2099 46.9588 43.1684 47.3628C42.3829 47.6693 41.2015 48.0316 39.0264 48.1309C36.6748 48.2378 35.9683 48.261 30.012 48.261C24.0551 48.261 23.3492 48.2378 20.9975 48.1309C18.8224 48.0306 17.6419 47.6675 16.8551 47.3623C15.814 46.9583 15.0704 46.4753 14.2896 45.6951C13.5088 44.9149 13.0255 44.1737 12.6202 43.1329C12.3149 42.3481 11.951 41.1684 11.852 38.995C11.7451 36.645 11.7237 35.9391 11.7237 29.9863C11.7237 24.0334 11.7451 23.3312 11.852 20.9813C11.9514 18.8078 12.3149 17.6282 12.6202 16.8424C13.0245 15.8021 13.5088 15.0591 14.2896 14.2789C15.0704 13.4986 15.814 13.0157 16.8551 12.6107C17.6415 12.3042 18.8224 11.9419 20.9975 11.8421C23.0554 11.7492 23.853 11.7213 28.0107 11.7167L28.0107 11.7223ZM41.92 15.4236C40.4421 15.4236 39.243 16.6204 39.243 18.0977C39.243 19.5746 40.4421 20.7728 41.92 20.7728C43.398 20.7728 44.5971 19.5746 44.5971 18.0977C44.5971 16.6209 43.398 15.4227 41.92 15.4227L41.92 15.4236ZM30.012 18.5491C23.6852 18.5491 18.5557 23.6749 18.5557 29.997C18.5557 36.319 23.6852 41.4424 30.012 41.4424C36.3387 41.4424 41.4664 36.319 41.4664 29.997C41.4664 23.6749 36.3383 18.5491 30.0115 18.5491H30.012ZM30.012 22.5663C34.1186 22.5663 37.4481 25.8929 37.4481 29.997C37.4481 34.1005 34.1186 37.4276 30.012 37.4276C25.9049 37.4276 22.5758 34.1005 22.5758 29.997C22.5758 25.8929 25.9049 22.5663 30.012 22.5663Z" fill="white"/>
</g>
<path d="M30.5189 30.3619C30.5189 30.1169 30.7165 29.9194 30.9614 29.9194C31.2063 29.9194 31.4038 30.1169 31.4038 30.3619C31.4038 30.6068 31.2063 30.8043 30.9614 30.8043C30.7165 30.8043 30.5189 30.6068 30.5189 30.3619ZM30.2793 30.3619C30.2793 30.7385 30.5848 31.0413 30.9587 31.0413C31.3327 31.0413 31.6382 30.7385 31.6382 30.3619C31.6382 29.9852 31.3327 29.6824 30.9587 29.6824C30.5848 29.6824 30.2793 29.9879 30.2793 30.3619ZM31.5091 29.6534C31.5091 29.7403 31.5802 29.8114 31.6672 29.8114C31.7541 29.8114 31.8252 29.7403 31.8252 29.6534C31.8252 29.5665 31.7541 29.4954 31.6672 29.4954C31.5802 29.4954 31.5091 29.5665 31.5091 29.6534ZM30.4241 31.439C30.2951 31.4338 30.224 31.4127 30.1792 31.3943C30.1186 31.3706 30.0739 31.3416 30.0265 31.2942C29.9791 31.2494 29.9501 31.2046 29.9264 31.1414C29.908 31.094 29.8869 31.0255 29.8816 30.8965C29.8764 30.7569 29.8737 30.7148 29.8737 30.3619C29.8737 30.0089 29.8737 29.9668 29.8816 29.8272C29.8869 29.6982 29.908 29.6271 29.9264 29.5823C29.9501 29.5217 29.9791 29.4769 30.0265 29.4295C30.0739 29.3821 30.116 29.3532 30.1792 29.3294C30.2266 29.311 30.2951 29.2899 30.4241 29.2847C30.5637 29.2794 30.6058 29.2768 30.9587 29.2768C31.3116 29.2768 31.3538 29.2768 31.4933 29.2847C31.6224 29.2899 31.6935 29.311 31.7383 29.3294C31.7988 29.3532 31.8436 29.3821 31.891 29.4295C31.9384 29.4769 31.9647 29.5191 31.9911 29.5823C32.0095 29.6297 32.0306 29.6982 32.0358 29.8272C32.0411 29.9668 32.0437 30.0089 32.0437 30.3619C32.0437 30.7148 32.0437 30.7595 32.0358 30.8965C32.0306 31.0255 32.0095 31.0967 31.9911 31.1414C31.9674 31.2046 31.9384 31.2494 31.891 31.2942C31.8436 31.3416 31.8015 31.3706 31.7383 31.3943C31.6909 31.4127 31.6224 31.4338 31.4933 31.439C31.3538 31.4469 31.3116 31.4496 30.9587 31.4496C30.6058 31.4496 30.5637 31.4496 30.4241 31.439ZM30.4136 29.045C30.2714 29.0503 30.1766 29.074 30.0923 29.1056C30.0054 29.1398 29.9317 29.1846 29.8579 29.2583C29.7842 29.3321 29.7394 29.4058 29.7052 29.4927C29.6736 29.577 29.6499 29.6745 29.6446 29.814C29.6394 29.9563 29.6367 30.001 29.6367 30.3592C29.6367 30.7174 29.6367 30.7648 29.6446 30.907C29.6499 31.0466 29.6736 31.1441 29.7052 31.2283C29.7394 31.3153 29.7842 31.389 29.8579 31.4627C29.9317 31.5391 30.0054 31.5839 30.0923 31.6155C30.1766 31.6471 30.274 31.6708 30.4136 31.6787C30.5558 31.684 30.6006 31.6866 30.9587 31.6866C31.3169 31.6866 31.3643 31.6866 31.5039 31.6787C31.6461 31.6708 31.7409 31.6497 31.8252 31.6155C31.9121 31.5813 31.9858 31.5365 32.0595 31.4627C32.1333 31.389 32.1781 31.3153 32.2123 31.2283C32.2439 31.1441 32.2676 31.0492 32.2729 30.907C32.2781 30.7674 32.2808 30.72 32.2808 30.3592C32.2808 29.9984 32.2808 29.9536 32.2729 29.814C32.2676 29.6718 32.2439 29.577 32.2123 29.4927C32.1781 29.4058 32.1333 29.3321 32.0595 29.2583C31.9858 29.1846 31.9121 29.1398 31.8252 29.1056C31.7409 29.074 31.6434 29.0503 31.5039 29.045C31.3617 29.0397 31.3169 29.0371 30.9587 29.0371C30.6006 29.0371 30.5532 29.0371 30.411 29.045" fill="white"/>
<defs>
<radialGradient id="paint0_radial_1_92" cx="0" cy="0" r="1" gradientUnits="userSpaceOnUse" gradientTransform="translate(58.0626 28.1227) rotate(164.25) scale(38.3366 27.6197)">
<stop stop-color="#FF005F"/>
<stop offset="1" stop-color="#FC01D8"/>
</radialGradient>
<radialGradient id="paint1_radial_1_92" cx="0" cy="0" r="1" gradientUnits="userSpaceOnUse" gradientTransform="translate(15.937 64.6212) rotate(-90) scale(47.8931 50.8136)">
<stop stop-color="#FFCC00"/>
<stop offset="0.1242" stop-color="#FFCC00"/>
<stop offset="0.5672" stop-color="#FE4A05"/>
<stop offset="0.6942" stop-color="#FF0F3F"/>
<stop offset="1" stop-color="#FE0657" stop-opacity="0"/>
</radialGradient>
<radialGradient id="paint2_radial_1_92" cx="0" cy="0" r="1" gradientUnits="userSpaceOnUse" gradientTransform="translate(31.5162 59.1538) rotate(-59.8703) scale(19.8042 25.7829)">
<stop stop-color="#FFCC00"/>
<stop offset="1" stop-color="#FFCC00" stop-opacity="0"/>
</radialGradient>
<radialGradient id="paint3_radial_1_92" cx="0" cy="0" r="1" gradientUnits="userSpaceOnUse" gradientTransform="translate(8.14071 2.44318) rotate(164.274) scale(37.9114 12.9164)">
<stop stop-color="#780CFF"/>
<stop offset="1" stop-color="#820BFF" stop-opacity="0"/>
</radialGradient>
<clipPath id="clip0_1_92">
<rect width="60" height="60" fill="white"/>
</clipPath>
</defs>
</svg>
