<svg width="60" height="61" viewBox="0 0 60 61" fill="none" xmlns="http://www.w3.org/2000/svg">
<path d="M47.0958 60.0042H12.9042C5.74983 60.0042 0 54.2101 0 47.0992V12.949C0 5.79412 5.79372 0 12.9042 0H47.0958C54.2502 0 60 5.79412 60 12.949V47.0992C60 54.2101 54.2063 60.0042 47.0958 60.0042Z" fill="#34A4DC"/>
<path d="M13.8697 29.0603L34.0599 20.7203C36.035 19.8424 42.8382 17.077 42.8382 17.077C42.8382 17.077 45.9546 15.848 45.6912 18.7889C45.6035 20.018 44.9011 24.2758 44.1989 28.8408L42.0482 42.4482C42.0482 42.4482 41.8726 44.4674 40.3803 44.7747C38.888 45.1258 36.4739 43.5456 36.035 43.1945C35.6839 42.9311 29.539 39.0245 27.2567 37.137C26.6422 36.6102 25.9399 35.5568 27.3445 34.3716C30.4608 31.5184 34.1916 27.963 36.4301 25.7243C37.4835 24.6708 38.4929 22.2566 34.1916 25.1976L21.9458 33.4498C21.9458 33.4498 20.5412 34.2838 17.9516 33.5376C15.362 32.7475 12.3335 31.694 12.3335 31.694C12.3335 31.694 10.2706 30.4211 13.8258 29.0164" fill="white"/>
</svg>
