<svg width="35" height="35" viewBox="0 0 35 35" fill="none" xmlns="http://www.w3.org/2000/svg">
<path fill-rule="evenodd" clip-rule="evenodd" d="M1.35557 1.35536C2.10422 0.606699 3.31804 0.606699 4.0667 1.35536L33.6442 30.933C34.3928 31.6817 34.3928 32.8955 33.6442 33.6442C32.8955 34.3929 31.6817 34.3929 30.933 33.6442L1.35557 4.06651C0.606907 3.31785 0.606907 2.10403 1.35557 1.35536Z" fill="#FFCB00"/>
<path fill-rule="evenodd" clip-rule="evenodd" d="M33.6446 1.35557C34.3933 2.10424 34.3933 3.31806 33.6446 4.06672L4.06715 33.6444C3.3185 34.3931 2.10468 34.3931 1.35602 33.6444C0.607366 32.8957 0.607366 31.6819 1.35602 30.9333L30.9335 1.35557C31.6822 0.606912 32.896 0.606912 33.6446 1.35557Z" fill="#FFCB00"/>
</svg>
