<svg width="35" height="34" viewBox="0 0 35 34" fill="none" xmlns="http://www.w3.org/2000/svg">
<path d="M34.4813 11.8531C33.9294 9.66537 31.6823 8.33797 29.4639 8.8811C27.2477 9.42422 25.8924 11.638 26.4442 13.8235C26.6275 14.5383 26.718 15.2813 26.718 16.0286C26.718 21.0275 22.5858 25.0966 17.5022 25.0966C12.4186 25.0966 8.28866 21.0275 8.28866 16.0286C8.28866 12.494 10.3967 9.26129 13.6592 7.77965C15.7341 6.84113 16.6458 4.41879 15.6878 2.37447C14.7342 0.330154 12.2774 -0.567088 10.1958 0.373603C4.00196 3.17612 0 9.31995 0 16.0264C0 25.5224 7.8538 33.25 17.5 33.25C27.1462 33.25 35 25.5203 35 16.0264C35 14.6143 34.8256 13.2087 34.4791 11.8509" fill="#E5E5E5"/>
</svg>
