<svg width="45" height="59" viewBox="0 0 45 59" fill="none" xmlns="http://www.w3.org/2000/svg">
<path d="M25 56.1911C28.3833 56.1911 31 53.2129 31 50.1632C31 47.1135 28.3833 44.1353 25 44.1353H20C23.3833 44.1353 26.1246 47.1135 26.1246 50.1632C26.1246 53.2129 23.3833 55.6888 20 55.6888L25 56.1911Z" fill="#E28F26"/>
<path d="M22 17.5117C22 17.5117 21.9587 27.3991 21.3395 32.1506C20.7946 36.3215 20.7286 40.6968 19.2177 42.864C18.8793 43.3547 18.3096 43.6327 17.7069 43.6327H14C14.6027 43.6327 15.1723 43.3547 15.5108 42.864C17.0217 40.6968 17.0877 36.3215 17.6326 32.1506C18.2518 27.3991 18.2931 17.5117 18.2931 17.5117H22V17.5117Z" fill="#F19D1F"/>
<path d="M16.6446 43.6328C16.1322 43.6328 15.719 44.0373 15.719 44.5388V55.5236C15.719 56.0252 16.1322 56.4296 16.6446 56.4296H18.438C18.8595 56.4296 19.2562 56.5833 19.5868 56.8341C21.0661 58.007 22.9504 58.7026 25 58.7026H20.3554C18.3058 58.7026 17.3471 57.9989 15.8678 56.8341C15.5455 56.5752 15.1405 56.4296 14.719 56.4296H12.9256C12.4132 56.4296 12 56.0252 12 55.5236V44.5388C12 44.0373 12.4132 43.6328 12.9256 43.6328H16.6364H16.6446Z" fill="#E28F26"/>
<path d="M24.5 55.982C21.2008 55.982 18.5276 53.4162 18.5276 50.2559C18.5276 47.0955 21.2008 44.5297 24.5 44.5297C27.7992 44.5297 30.4724 47.0955 30.4724 50.2559C30.4724 53.4162 27.7992 55.982 24.5 55.982ZM33.0441 43.5278H31.6821C31.0646 43.5278 30.4809 43.2509 30.134 42.7622C28.5944 40.6037 28.5183 36.2459 27.9599 32.0918C27.3255 27.3594 27.2832 17.5117 27.2832 17.5117H21.7084C21.7084 17.5117 21.6661 27.3594 21.0316 32.0918C20.4733 36.2459 20.4056 40.6037 18.8575 42.7622C18.5107 43.2509 17.927 43.5278 17.3094 43.5278H15.9475C15.423 43.5278 15 43.9351 15 44.4401V55.5014C15 56.0064 15.423 56.4137 15.9475 56.4137H17.7832C18.2146 56.4137 18.6207 56.5685 18.959 56.821C20.4733 58.002 22.402 58.7025 24.5 58.7025C26.598 58.7025 28.5267 57.9939 30.041 56.821C30.3709 56.5603 30.7854 56.4137 31.2168 56.4137H33.0525C33.577 56.4137 34 56.0064 34 55.5014V44.4401C34 43.9351 33.577 43.5278 33.0525 43.5278H33.0441Z" fill="#FFC708"/>
<path d="M33.0441 43.5278H31.6821C31.0646 43.5278 30.4809 43.2509 30.134 42.7622C28.5944 40.6037 28.5183 36.2459 27.9599 32.0918C27.3255 27.3594 27.2832 17.5117 27.2832 17.5117H21.7084C21.7084 17.5117 21.6661 27.3594 21.0316 32.0918C20.4733 36.2459 20.4056 40.6037 18.8575 42.7622C18.5107 43.2509 17.927 43.5278 17.3094 43.5278H15.9475C15.423 43.5278 15 43.9351 15 44.4401V55.5014C15 56.0064 15.423 56.4137 15.9475 56.4137H17.7832C18.2146 56.4137 18.6207 56.5685 18.959 56.821C20.4733 58.002 22.402 58.7025 24.5 58.7025C26.598 58.7025 28.5267 57.9939 30.041 56.821C30.3709 56.5603 30.7854 56.4137 31.2168 56.4137H33.0525C33.577 56.4137 34 56.0064 34 55.5014V44.4401C34 43.9351 33.577 43.5278 33.0525 43.5278H33.0441ZM24.5 55.982C21.2008 55.982 18.5276 53.4162 18.5276 50.2559C18.5276 47.0955 21.2008 44.5297 24.5 44.5297C27.7992 44.5297 30.4724 47.0955 30.4724 50.2559C30.4724 53.4162 27.7992 55.982 24.5 55.982V55.982Z" fill="#FFC708"/>
<path d="M25.5 42.6279C21.3696 42.6279 18 46.0068 18 50.1628C18 54.3189 21.3612 57.6977 25.5 57.6977C29.6388 57.6977 33 54.3189 33 50.1628C33 46.0068 29.6388 42.6279 25.5 42.6279V42.6279ZM25.5 56.1012C22.2391 56.1012 19.597 53.4404 19.597 50.1628C19.597 46.8853 22.2391 44.2245 25.5 44.2245C28.7609 44.2245 31.403 46.8853 31.403 50.1628C31.403 53.4404 28.7609 56.1012 25.5 56.1012Z" fill="#FDE79C"/>
<path d="M24 42.5512C23.3704 42.5512 22.7834 42.5835 22.2984 42.6239C21.5497 42.6886 20.9371 41.9852 21.0052 41.1525C21.2264 38.4278 21.6348 33.1644 21.6858 32.0729C21.8985 27.3512 22.2644 17.916 22.2644 17.5117H25.7357C25.7357 17.916 26.1015 27.3512 26.3142 32.0729C26.3653 33.1644 26.7822 38.4278 26.9949 41.1525C27.063 41.9852 26.4419 42.6886 25.7017 42.6239C25.2082 42.5835 24.6296 42.5512 24 42.5512Z" fill="#EBB41F"/>
<path d="M18 50.6655H16" stroke="#FFC708" stroke-width="0.64" stroke-miterlimit="10"/>
<path d="M36 17.0574C36 16.4958 35.9917 15.8936 35.9834 15.2832L35.9502 11.0839C35.9502 10.7746 35.9502 10.4735 35.9502 10.1643L35.9253 7.44606V6.88452L35.9087 5.11037C35.9087 5.01271 35.6098 4.91505 34.9953 4.82553C34.9206 4.81739 34.8459 4.80112 34.7712 4.79298H34.7131C34.6383 4.7767 34.5636 4.76857 34.4806 4.76043H34.464C34.3809 4.75229 34.2896 4.73601 34.19 4.72787H34.1152C34.0322 4.7116 33.9492 4.70346 33.8579 4.69532H33.8163C33.7167 4.67904 33.6088 4.67091 33.5008 4.66277H33.4178L33.3016 4.64649C33.3016 4.64649 33.2185 4.64649 33.1853 4.63835C33.1272 4.63835 33.0691 4.63835 33.011 4.63021C32.9445 4.63021 32.8698 4.62208 32.8034 4.61394C32.7453 4.61394 32.6871 4.61394 32.6207 4.6058H32.546C32.4713 4.59766 32.3965 4.58952 32.3218 4.58952H32.2471C32.1309 4.58138 32.0146 4.57325 31.8984 4.56511H31.8652C31.6908 4.55697 31.5081 4.54883 31.3255 4.54069H31.176C31.0515 4.53255 30.9186 4.52442 30.7858 4.51628H30.7111C30.6695 4.51628 30.6197 4.51628 30.5782 4.51628C30.4786 4.51628 30.3706 4.51628 30.2627 4.50814H30.0302C29.9306 4.5 29.8393 4.49186 29.7396 4.49186C29.6981 4.49186 29.6566 4.49186 29.6151 4.49186H29.4988C29.4075 4.49186 29.3162 4.49186 29.2165 4.48373C29.1667 4.48373 29.1169 4.48373 29.0671 4.48373H28.9508C28.8595 4.48373 28.7765 4.48373 28.6852 4.47559H28.4112C28.3198 4.47559 28.2368 4.46745 28.1455 4.46745H27.996C27.9545 4.46745 27.9047 4.46745 27.8632 4.46745C27.7801 4.46745 27.6888 4.46745 27.6058 4.46745C27.556 4.46745 27.5144 4.46745 27.4646 4.46745C27.4065 4.46745 27.3567 4.46745 27.2986 4.46745H26.46C26.3188 4.45931 26.1694 4.45931 26.0199 4.45117H25.9784C25.8456 4.45117 25.7127 4.45117 25.5799 4.45117H25.2145C25.0983 4.45117 24.9738 4.45117 24.8575 4.45117H24.8409H24.7828C24.6915 4.45117 24.6084 4.45117 24.5171 4.45117C24.4175 4.45117 24.3261 4.45117 24.2265 4.45117C24.1269 4.45117 24.0355 4.45117 23.9359 4.45117C23.8363 4.45117 23.7449 4.45117 23.6453 4.45117H23.6038C23.5291 4.45117 23.4543 4.45117 23.3796 4.45117C23.2966 4.45117 23.2052 4.45117 23.1222 4.45117H22.8648C22.7735 4.45117 22.6905 4.45117 22.5991 4.45117H22.3085C22.2089 4.45117 22.1176 4.45117 22.0179 4.45117C21.9515 4.45117 21.8851 4.45117 21.8187 4.45117H21.7273C21.5779 4.45117 21.4284 4.45117 21.2873 4.45931H21.2292C21.171 4.45931 21.1129 4.45931 21.0465 4.45931C20.9635 4.45931 20.8804 4.45931 20.7974 4.45931H20.7393C20.3823 4.46745 20.0252 4.47559 19.6682 4.48373H19.4606C19.3776 4.48373 19.2946 4.49186 19.2116 4.5C19.1534 4.5 19.087 4.5 19.0289 4.5C18.9376 4.5 18.8462 4.5 18.7549 4.50814H18.4062L18.2567 4.52442H18.1903C18.1073 4.52442 18.0325 4.53256 17.9495 4.53256H17.825C17.7004 4.54069 17.5759 4.54883 17.4596 4.54883H17.3683C17.277 4.54883 17.1857 4.55697 17.0943 4.56511H17.0611C16.9864 4.56511 16.9117 4.57325 16.8452 4.57325H16.6626C16.5629 4.58952 16.455 4.58952 16.3554 4.59766H16.2474C16.0897 4.61394 15.9402 4.62208 15.7908 4.63021H15.6828C15.5334 4.64649 15.3922 4.65463 15.2594 4.66277H15.1681L15.0601 4.67904C14.9854 4.67904 14.919 4.68718 14.8525 4.69532H14.728L14.6201 4.7116H14.5453L14.4208 4.72787L14.2381 4.74415H14.0804L14.0306 4.76043C13.8977 4.76857 13.7649 4.78484 13.6403 4.79298H13.5988C13.4743 4.80926 13.3497 4.8174 13.2335 4.83367H13.1504C13.0508 4.84995 12.9595 4.85809 12.8682 4.87436H12.8183C12.7187 4.89064 12.6274 4.89878 12.536 4.91505H12.4696C12.4032 4.93133 12.3368 4.93947 12.2786 4.94761H12.2039C12.1375 4.96388 12.0711 4.97202 12.013 4.9883H11.9797C11.9133 5.00458 11.8469 5.01271 11.7805 5.02899H11.7307C11.6891 5.04527 11.6393 5.05341 11.5978 5.06154H11.548C11.548 5.06154 11.4733 5.08596 11.4318 5.0941H11.3985C11.3487 5.11037 11.3072 5.12665 11.274 5.13479H11.2491C11.2491 5.13479 11.191 5.1592 11.1661 5.16734H11.1411C11.1411 5.16734 11.0913 5.19989 11.0747 5.20803H11.0581C11.0581 5.20803 11.0166 5.24059 11.0083 5.24872C11.0083 5.24872 11.0083 5.265 11 5.265C11 5.265 11 5.28942 11 5.29755L11.0913 17.2446C11.0913 17.2446 11.0913 17.269 11.0996 17.2771C11.0996 17.269 11.0913 17.2527 11.0913 17.2446V17.3015V17.3829L11.1079 17.4155V17.448H11.1245C11.1245 17.448 11.1411 17.4887 11.1411 17.505C11.191 17.6271 11.274 17.7247 11.3819 17.798H11.3985L11.4401 17.8305H11.4567V17.8468L11.4899 17.8631L11.5148 17.8793L11.5397 17.8956L11.5729 17.9119L11.6061 17.9282L11.6476 17.9445L11.6974 17.9607H11.7307L11.7556 17.977H11.7805L11.822 17.9933C11.8884 18.0096 11.9548 18.0258 12.0213 18.0421H12.0545L12.096 18.0584C12.1956 18.0747 12.2537 18.0909 12.4613 18.1235C12.5692 18.1398 12.6855 18.1561 12.8183 18.1723L12.9761 18.1886L13.3497 18.2293C13.3912 18.2293 13.441 18.2374 13.4909 18.2456C14.0389 18.2944 14.7612 18.3432 15.7493 18.3921H15.7825C15.8572 18.3921 15.9402 18.4002 16.0316 18.4083H16.0565C16.2142 18.4083 16.3803 18.4246 16.5131 18.4246L17.2687 18.449C17.4098 18.449 17.5759 18.4572 17.7336 18.4653C17.8084 18.4653 17.8914 18.4653 17.9661 18.4653H18.1488C18.4311 18.4734 18.7134 18.4816 19.004 18.4897C19.9422 18.506 21.8187 18.5304 24.2182 18.506H24.268C24.351 18.506 24.4507 18.506 24.5503 18.506C24.6998 18.506 24.8492 18.506 24.9987 18.506H25.4221C25.5716 18.4979 25.7127 18.4897 25.8622 18.4897H26.1362C26.4185 18.4816 26.7838 18.4653 27.0661 18.4653H27.4563C27.6307 18.449 27.805 18.4409 27.9877 18.4409C28.1289 18.4409 28.2866 18.4328 28.461 18.4246C29.914 18.3758 31.176 18.3107 32.2305 18.2293C32.2886 18.2293 32.3467 18.2212 32.4048 18.213H32.5045C32.7868 18.1805 33.0691 18.1561 33.3348 18.1316C33.4925 18.1154 33.642 18.0991 33.7748 18.0828H33.8163C33.9492 18.0665 34.0239 18.0584 34.1152 18.0421C34.2398 18.0258 34.3477 18.0096 34.4474 17.9933H34.4972C34.5802 17.977 34.6632 17.9607 34.738 17.9445H34.8044C35.0037 17.9038 35.1614 17.8631 35.3026 17.8142H35.3358L35.3607 17.798L35.4188 17.7817L35.4603 17.7654H35.4769L35.4935 17.7491L35.5267 17.7329H35.5516V17.7166H35.5766L35.6015 17.7003H35.6264L35.643 17.684L35.6679 17.6678L35.7094 17.6433L35.7426 17.6189H35.7592L35.7758 17.5945L35.8007 17.5701L35.8256 17.5457H35.8339L35.8505 17.5213L35.8755 17.4969L35.8921 17.4724V17.448H35.9087V17.4236H35.917V17.3992L35.9336 17.3748V17.3504H35.9419V17.3259H35.9585V17.3097V17.2934V17.2771L35.9751 17.2446V17.1957H35.9834V17.1632V17.0899L36 17.0574Z" fill="#C0C0C1"/>
<path d="M11.918 5.93582C9.3266 5.45055 12.4096 4.83869 18.8005 4.57495C25.1998 4.31122 32.4907 4.48001 35.082 4.97583C37.6734 5.47165 34.5904 6.07296 28.1995 6.3367C21.8002 6.60043 14.5093 6.43164 11.918 5.93582V5.93582ZM12.8179 5.89363C15.2093 6.34725 21.9418 6.50549 27.8412 6.26285C33.7405 6.02022 36.5902 5.45055 34.1905 5.00748C31.7991 4.55385 25.0665 4.39561 19.1672 4.63825C13.2678 4.88088 10.4181 5.45055 12.8179 5.89363" fill="#888889"/>
<path d="M35 4.85068V4.45117C35 4.45117 35 4.46292 34.9917 4.4688C34.9917 4.4688 34.9834 4.48055 34.9751 4.48642C34.9668 4.4923 34.9502 4.50405 34.9253 4.50992H34.917C34.917 4.50992 34.8755 4.52755 34.8588 4.53342H34.8339C34.8339 4.53342 34.7841 4.55105 34.7592 4.55692H34.7343C34.7343 4.55692 34.6596 4.57455 34.6181 4.5863H34.5848C34.5848 4.5863 34.5184 4.60393 34.4769 4.6098H34.4271C34.4271 4.6098 34.3523 4.62743 34.3025 4.6333H34.261C34.2029 4.64505 34.1448 4.65093 34.0783 4.66268H34.0451C33.987 4.67443 33.9289 4.6803 33.8708 4.68618H33.8043C33.7462 4.69793 33.6881 4.7038 33.63 4.70968H33.5635C33.4805 4.72143 33.3975 4.7273 33.3061 4.73906H33.2563C33.1733 4.75081 33.0903 4.75668 32.9989 4.76256H32.9242C32.8162 4.77431 32.7083 4.78606 32.5921 4.79193H32.5505C32.4343 4.80368 32.318 4.80956 32.1935 4.81543H32.1188C31.9776 4.82718 31.8365 4.83306 31.687 4.84481H31.604C31.4545 4.85656 31.2968 4.86243 31.1307 4.87418H31.0643C30.9314 4.88006 30.7986 4.88593 30.6657 4.89181H30.5661C30.4249 4.90356 30.2921 4.90943 30.1426 4.90943H30.043C29.9516 4.91531 29.8603 4.92119 29.7607 4.92119H29.578C29.5116 4.92706 29.4534 4.93294 29.387 4.93294C29.2957 4.93294 29.196 4.93881 29.1047 4.94469H29.03C28.9054 4.94469 28.7892 4.95644 28.6646 4.95644H28.5567C28.4653 4.95644 28.3823 4.96231 28.291 4.96819H28.1415C28.0336 4.97406 27.9339 4.97994 27.826 4.97994C27.6848 4.97994 27.552 4.98581 27.4108 4.99169H26.9874C26.6552 5.00931 26.3314 5.01519 25.9993 5.01519C25.9079 5.01519 25.8083 5.01519 25.7087 5.01519H25.5426C25.3765 5.01519 25.2105 5.02106 25.0361 5.02106H24.9946C24.8202 5.02106 24.6542 5.02106 24.4798 5.02106H24.4217C24.2556 5.02106 24.0895 5.02106 23.9152 5.02106H23.8653C23.691 5.02106 23.5166 5.02106 23.3422 5.02106H23.3173C23.1347 5.02106 22.952 5.02106 22.7776 5.02106H22.761C22.5866 5.02106 22.4123 5.02106 22.2379 5.02106H22.2047C22.0386 5.02106 21.8809 5.02106 21.7148 5.02106H21.6235C21.4574 5.02106 21.2996 5.02106 21.1419 5.02106H21.117C20.9592 5.02106 20.8014 5.02106 20.6354 5.02106C20.569 5.02106 20.5108 5.02106 20.4444 5.02106C20.3448 5.02106 20.2368 5.02106 20.1372 5.02106H19.9296C19.83 5.02106 19.7386 5.02106 19.639 5.02106H19.4065C19.3152 5.02106 19.2238 5.02106 19.1408 5.01519C19.0661 5.01519 18.983 5.01519 18.9083 5.01519C18.817 5.01519 18.7339 5.01519 18.6509 5.01519C18.5679 5.01519 18.4931 5.01519 18.4101 5.01519C18.3271 5.01519 18.2523 5.01519 18.1693 5.01519C18.078 5.01519 17.9949 5.01519 17.9036 5.01519C17.8289 5.01519 17.7542 5.01519 17.6794 5.01519C17.5881 5.01519 17.4968 5.01519 17.4137 5.00931C17.339 5.00931 17.2726 5.00931 17.1978 5.00931C17.0982 5.00931 17.0069 5.00931 16.9155 5.00344H16.7162C16.6 4.99756 16.4838 4.99169 16.3675 4.98581H16.2264C16.0603 4.97406 15.8859 4.96819 15.7282 4.96231C15.6119 4.96231 15.4957 4.95644 15.3794 4.95056H15.3047C15.2134 4.94469 15.122 4.93881 15.039 4.93881H14.8729C14.8065 4.92706 14.7401 4.92706 14.6736 4.92119C14.6155 4.92119 14.5657 4.92119 14.5159 4.91531C14.4412 4.91531 14.3747 4.90944 14.3083 4.90356H14.2336C14.1339 4.89181 14.0426 4.88593 13.943 4.88006H13.9014C13.8184 4.87418 13.7437 4.86831 13.669 4.86243H13.6025C13.5195 4.85068 13.4282 4.84481 13.3534 4.83893H13.3285C13.2538 4.83306 13.1874 4.82718 13.1126 4.82131H13.0545C12.9798 4.80956 12.9134 4.80368 12.8469 4.79781C12.274 4.73905 12 4.67443 12 4.6098V5.00344C12 5.06806 12.274 5.13269 12.8552 5.19144C12.9217 5.19732 12.9964 5.20319 13.0628 5.21494H13.1209C13.1874 5.22669 13.2621 5.23257 13.3368 5.23844H13.3534C13.4365 5.24432 13.5195 5.25019 13.6025 5.26194H13.669C13.7437 5.2737 13.8267 5.27957 13.9097 5.28545H13.9513C14.0426 5.29132 14.1422 5.2972 14.2419 5.30307H14.3166L14.4245 5.31482H14.5325C14.5823 5.3207 14.6404 5.32657 14.6903 5.32657C14.7567 5.32657 14.8231 5.33245 14.8812 5.33832H15.0473L15.1137 5.35007C15.1801 5.35007 15.2549 5.35007 15.3213 5.35595H15.3877C15.4957 5.36182 15.6036 5.3677 15.7116 5.37357H15.7365C15.9025 5.37945 16.0686 5.38532 16.2347 5.3912H16.2596C16.2596 5.3912 16.3343 5.3912 16.3675 5.3912C16.4838 5.3912 16.6 5.39707 16.7245 5.40295H16.791C16.791 5.40295 16.874 5.40295 16.9155 5.40295C17.0069 5.40295 17.1065 5.40295 17.2061 5.40882H17.422C17.5134 5.4147 17.6047 5.42057 17.696 5.42057H17.9202C18.0032 5.42645 18.0863 5.42645 18.1776 5.43233C18.2274 5.43233 18.269 5.43233 18.3188 5.43233H18.4267C18.5097 5.43233 18.5928 5.43233 18.6758 5.43233H18.9249C19.0079 5.43233 19.091 5.4382 19.174 5.4382H19.4314C19.5144 5.4382 19.5975 5.4382 19.6722 5.44408H20.6603L20.7267 5.45583C20.8596 5.45583 20.9924 5.45583 21.1336 5.45583H21.1834C21.2996 5.45583 21.4242 5.45583 21.5404 5.45583H21.8726C21.9805 5.45583 22.0884 5.45583 22.2047 5.45583H22.2628C22.3458 5.45583 22.4289 5.45583 22.5202 5.45583C22.6116 5.45583 22.6946 5.45583 22.7859 5.45583C22.8773 5.45583 22.9686 5.45583 23.0516 5.45583C23.143 5.45583 23.2343 5.45583 23.3173 5.45583H24.0397C24.1227 5.45583 24.2058 5.45583 24.2805 5.44995H24.5462C24.6375 5.44995 24.7206 5.44995 24.8119 5.44995H25.0776C25.2105 5.44995 25.3516 5.44408 25.4845 5.44408H25.6921C25.7751 5.44408 25.8498 5.44408 25.9329 5.4382H25.991C26.3231 5.43233 26.6469 5.42645 26.9791 5.42057H27.4025C27.4606 5.40882 27.5105 5.40882 27.5686 5.40882C27.6516 5.40882 27.7347 5.40882 27.8177 5.40882H28.1415L28.2744 5.39707H28.3325C28.4072 5.39707 28.4903 5.39707 28.565 5.3912H28.6646C28.7809 5.38532 28.8971 5.37945 29.0051 5.37945H29.0549C29.1462 5.37945 29.2458 5.37357 29.3372 5.3677H29.3704C29.4368 5.3677 29.4949 5.3677 29.5614 5.36182H29.744C29.8354 5.35007 29.935 5.35007 30.0264 5.3442H30.126C30.2671 5.33245 30.4083 5.33245 30.5412 5.32657H30.6491C30.782 5.31482 30.9148 5.30895 31.0393 5.30307H31.1141C31.2718 5.29132 31.4296 5.28545 31.5874 5.27957H31.6704C31.8199 5.26782 31.961 5.26195 32.1022 5.25019H32.1769C32.3014 5.23844 32.4177 5.23257 32.5339 5.22669H32.5755C32.6917 5.21494 32.7996 5.20907 32.9076 5.20319H32.9906C33.082 5.19144 33.165 5.18557 33.248 5.17969H33.2978C33.3892 5.16794 33.4722 5.16207 33.5552 5.15619H33.6217C33.6798 5.14444 33.7379 5.13857 33.796 5.13269H33.8625C33.9206 5.12094 33.9787 5.11507 34.0368 5.10919H34.07C34.1365 5.09744 34.1946 5.09157 34.2527 5.08569H34.2942C34.3357 5.07394 34.3773 5.06806 34.4188 5.06219H34.4686C34.4686 5.06219 34.5433 5.04456 34.5765 5.03869H34.6097C34.6513 5.02694 34.6928 5.01519 34.726 5.00931H34.7509C34.7509 5.00931 34.809 4.99169 34.8256 4.98581H34.8505C34.8505 4.98581 34.8921 4.96819 34.917 4.95644H34.9253C34.9253 4.95644 34.9585 4.93294 34.9751 4.92706V4.91531H34.9917V4.89768L35 4.85068Z" fill="#666667"/>
<path d="M35 4.45143V3.88579C35 3.79292 34.7732 3.70005 34.2921 3.61563C33.9553 3.55653 33.5155 3.49743 33 3.44678V4.01242C33.5223 4.06308 33.9622 4.11373 34.299 4.18127C34.7732 4.2657 35 4.35856 35 4.45143Z" fill="#90330C"/>
<path d="M33 3.88594V3.48287C32.6786 3.47084 32.3452 3.45881 32 3.44678V3.84984C32.3571 3.86188 32.6905 3.87391 33 3.88594Z" fill="#93340E"/>
<path d="M32 3.87391V3.47084C31.6712 3.46483 31.3425 3.45279 31 3.44678V3.84985C31.3425 3.85586 31.6712 3.86789 32 3.87391Z" fill="#973610"/>
<path d="M32 3.86789V3.46483C31.6716 3.45881 31.3284 3.45279 31 3.44678V3.84984C31.3433 3.85586 31.6866 3.86187 32 3.86789Z" fill="#9B3812"/>
<path d="M31 3.86789V3.46482C30.6769 3.46482 30.3385 3.45279 30 3.44678V3.84984C30.3385 3.84984 30.6769 3.86187 31 3.86789Z" fill="#9E3A13"/>
<path d="M31 3.86188V3.45881C30.6613 3.45881 30.3387 3.44678 30 3.44678V3.84985C30.3387 3.84985 30.6774 3.85586 31 3.86188Z" fill="#A23B15"/>
<path d="M30 3.86188V3.45881C29.6721 3.45881 29.3279 3.45279 29 3.44678V3.84985C29.3443 3.84985 29.6721 3.85586 30 3.86188Z" fill="#A63D16"/>
<path d="M30 3.86188V3.45881C29.6721 3.45881 29.3279 3.45279 29 3.44678V3.84985C29.3443 3.84985 29.6721 3.85586 30 3.86188Z" fill="#AA3F18"/>
<path d="M28.4977 3.85586V3.45279C28.3318 3.45279 28.1659 3.45279 28 3.44678V3.84984C28.1742 3.84984 28.3401 3.84984 28.4977 3.85586Z" fill="#AF4119"/>
<path d="M28.1988 3.87344V3.47037C28.0329 3.47037 27.8671 3.47037 27.7012 3.46436V3.86742C27.8671 3.86742 28.0329 3.86742 28.1988 3.87344Z" fill="#B2421B"/>
<path d="M27.7096 3.86742V3.46436C27.5437 3.46436 27.3778 3.46436 27.2119 3.46436V3.86742C27.3778 3.86742 27.5437 3.86742 27.7096 3.86742Z" fill="#B6441C"/>
<path d="M27.2198 3.86156V3.4585C27.0623 3.4585 26.9047 3.4585 26.7471 3.4585V3.86156C26.9047 3.86156 27.0623 3.86156 27.2198 3.86156Z" fill="#BA461D"/>
<path d="M26.7555 3.86156V3.4585C26.5979 3.4585 26.4403 3.4585 26.291 3.4585V3.86156C26.4486 3.86156 26.6062 3.86156 26.7555 3.86156Z" fill="#BE471E"/>
<path d="M26.2912 3.85571V3.45264C26.1502 3.45264 26.0175 3.45264 25.8848 3.45264V3.85571C26.0258 3.85571 26.1585 3.85571 26.2912 3.85571Z" fill="#C2491F"/>
<path d="M25.8844 3.85571V3.45264C25.7434 3.45264 25.6107 3.45264 25.4697 3.45264V3.85571C25.6107 3.85571 25.7434 3.85571 25.8844 3.85571Z" fill="#C64A20"/>
<path d="M25.4778 3.84985V3.44678C25.3616 3.44678 25.2538 3.44678 25.1377 3.44678V3.84985C25.2538 3.84985 25.3616 3.84985 25.4778 3.84985Z" fill="#CA4C21"/>
<path d="M25.1462 3.84985V3.44678C25.0301 3.44678 24.9223 3.44678 24.8145 3.44678V3.84985C24.9306 3.84985 25.0384 3.84985 25.1462 3.84985Z" fill="#CE4E22"/>
<path d="M24.8147 3.84985V3.44678C24.7069 3.44678 24.599 3.44678 24.4912 3.44678V3.84985C24.599 3.84985 24.7069 3.84985 24.8147 3.84985Z" fill="#D24F23"/>
<path d="M24.4993 3.84985V3.44678C24.4081 3.44678 24.3168 3.44678 24.2256 3.44678V3.84985C24.3168 3.84985 24.4081 3.84985 24.4993 3.84985Z" fill="#D65124"/>
<path d="M24.2337 3.84985V3.44678C24.1424 3.44678 24.0512 3.44678 23.96 3.44678V3.84985C24.0512 3.84985 24.1424 3.84985 24.2337 3.84985Z" fill="#DA5225"/>
<path d="M23.9602 3.85571V3.45264C23.869 3.45264 23.7778 3.45264 23.6865 3.45264V3.85571C23.7778 3.85571 23.869 3.85571 23.9602 3.85571Z" fill="#DE5426"/>
<path d="M23.6951 3.8557V3.45264H23.4463V3.86172H23.6951" fill="#E25526"/>
<path d="M23.4544 3.8557V3.45264H23.2139V3.86172H23.4544" fill="#E55627"/>
<path d="M23.2142 3.8557V3.45264H22.9736V3.86172H23.2142" fill="#EA5828"/>
<path d="M22.9734 3.8557V3.45264H22.7246V3.86172H22.9734" fill="#F05A29"/>
<path d="M22.7327 3.86156V3.4585C22.6415 3.4585 22.5502 3.4585 22.459 3.4585V3.86156C22.5502 3.86156 22.6415 3.86156 22.7327 3.86156Z" fill="#F26F3C"/>
<path d="M22.4593 3.86156V3.4585C22.368 3.4585 22.2768 3.4585 22.1855 3.4585V3.86156C22.2768 3.86156 22.368 3.86156 22.4593 3.86156Z" fill="#F37746"/>
<path d="M22.1936 3.86742V3.46436C22.1024 3.46436 22.0112 3.46436 21.9199 3.46436V3.86742C22.0112 3.86742 22.1024 3.86742 22.1936 3.86742Z" fill="#F37D4D"/>
<path d="M21.9284 3.86742V3.46436C21.7874 3.46436 21.6547 3.46436 21.5137 3.46436V3.86742C21.6547 3.86742 21.7874 3.86742 21.9284 3.86742Z" fill="#F48153"/>
<path d="M21.5216 3.87328V3.47021C21.364 3.47021 21.2147 3.47021 21.0654 3.47623V3.8793C21.223 3.8793 21.3723 3.8793 21.5216 3.87328Z" fill="#F48558"/>
<path d="M21.0655 3.88012V3.47705C20.684 3.47705 20.3107 3.48908 19.9375 3.4951V3.89816C20.3107 3.89215 20.684 3.88613 21.0655 3.88012Z" fill="#F5895D"/>
<path d="M19.9464 3.90404V3.50098C19.7722 3.50098 19.598 3.50699 19.4238 3.51301V3.91607C19.598 3.91607 19.7722 3.91005 19.9464 3.90404Z" fill="#F48558"/>
<path d="M19.4313 3.9099V3.50684C19.3401 3.50684 19.2571 3.50684 19.1742 3.50684H19V3.91592H19.1825C19.2654 3.9099 19.3484 3.9099 19.4313 3.90388" fill="#F48153"/>
<path d="M19.0085 3.9226V3.51953C18.8924 3.51953 18.7763 3.51953 18.6602 3.52555V3.92862C18.7763 3.92862 18.8924 3.92862 19.0085 3.9226Z" fill="#F37D4D"/>
<path d="M18.6682 3.93432V3.53125C18.5521 3.53125 18.436 3.53727 18.3281 3.54328V3.94635C18.4442 3.94635 18.5521 3.94033 18.6682 3.93432Z" fill="#F37746"/>
<path d="M18.3288 3.94017V3.53711C18.2127 3.53711 18.0966 3.54313 17.9805 3.54914V3.9522C18.0966 3.9522 18.2127 3.94619 18.3288 3.94017Z" fill="#F26F3C"/>
<path d="M17.9885 3.9519V3.54883C17.8724 3.54883 17.7646 3.55484 17.6484 3.56086V3.96393C17.7646 3.96393 17.8724 3.95791 17.9885 3.9519Z" fill="#F05A29"/>
<path d="M17.6569 3.96458V3.56152C17.5242 3.56152 17.3998 3.56754 17.2754 3.57356V3.97662C17.3998 3.97662 17.5242 3.9706 17.6569 3.96458Z" fill="#EA5828"/>
<path d="M17.2834 3.9763V3.57324C17.1424 3.57324 17.0097 3.58527 16.877 3.58527V3.98833C17.0097 3.98833 17.1424 3.9763 17.2834 3.9763Z" fill="#E55627"/>
<path d="M16.8849 3.98803V3.58496C16.719 3.59098 16.5614 3.59699 16.4121 3.60301V4.00607C16.5697 4.00006 16.7273 3.99404 16.8849 3.98803Z" fill="#E25526"/>
<path d="M16.4127 4.00658V3.60352C16.2385 3.60953 16.0643 3.61555 15.8984 3.62758V4.03065C16.0643 4.02463 16.2385 4.0126 16.4127 4.00658Z" fill="#DE5426"/>
<path d="M15.9063 4.0305V3.62744C15.7155 3.63346 15.5414 3.64549 15.3672 3.6515V4.05457C15.5414 4.04855 15.7238 4.03652 15.9063 4.0305Z" fill="#DA5225"/>
<path d="M15.3673 4.05492V3.65186C15.1931 3.65787 15.0272 3.6699 14.8613 3.68193V4.085C15.0272 4.07297 15.1931 4.06695 15.3673 4.05492Z" fill="#D65124"/>
<path d="M14.8703 4.08422V3.68115C14.7127 3.68717 14.5717 3.6992 14.4307 3.70522V4.10828C14.5717 4.09625 14.721 4.09024 14.8703 4.08422Z" fill="#D24F23"/>
<path d="M14.4382 4.10863V3.70557C14.3055 3.71158 14.1728 3.72361 14.0566 3.72963V4.1327C14.1811 4.12668 14.3138 4.11465 14.4382 4.10863Z" fill="#CE4E22"/>
<path d="M14.0569 4.13842V3.73535C13.9324 3.74137 13.8246 3.7534 13.7168 3.75942V4.16248C13.8246 4.15647 13.9407 4.14444 14.0569 4.13842Z" fill="#CA4C21"/>
<path d="M13.7171 4.16283V3.75977C13.6092 3.76578 13.518 3.77781 13.4268 3.78383V4.18689C13.5263 4.18087 13.6175 4.16884 13.7171 4.16283Z" fill="#C64A20"/>
<path d="M13.4265 4.18627V3.7832C13.3353 3.78922 13.2441 3.80125 13.1611 3.80727V4.21033C13.2441 4.20432 13.3353 4.19229 13.4265 4.18627Z" fill="#C2491F"/>
<path d="M13.1697 4.21069V3.80762C13.0868 3.81363 13.0039 3.82566 12.9375 3.83168V4.23475C13.0121 4.22873 13.0951 4.2167 13.1697 4.21069Z" fill="#BE471E"/>
<path d="M12.9368 4.2346V3.83154C12.8622 3.83756 12.7958 3.84959 12.7295 3.85561V4.25867C12.7958 4.25265 12.8622 4.24062 12.9368 4.2346Z" fill="#BA461D"/>
<path d="M12.7381 4.25902V3.85596C12.6718 3.86197 12.6137 3.874 12.5557 3.88002V4.28309C12.6137 4.27707 12.6718 4.26504 12.7381 4.25902Z" fill="#B6441C"/>
<path d="M12.556 4.28245V3.87939C12.498 3.88541 12.4482 3.89744 12.3984 3.90346V4.30652C12.4482 4.3005 12.498 4.28847 12.556 4.28245Z" fill="#B2421B"/>
<path d="M12.4061 4.31274V3.90967C12.3564 3.91568 12.3066 3.92772 12.2734 3.93373V4.3368C12.3149 4.33078 12.3647 4.31875 12.4061 4.31274Z" fill="#AF4119"/>
<path d="M12.2738 4.33763V3.93457C12.2324 3.94059 12.1909 3.95262 12.166 3.95863V4.36169C12.166 4.36169 12.2407 4.34365 12.2738 4.33763Z" fill="#AA3F18"/>
<path d="M12.1655 4.36108V3.95801C12.1655 3.95801 12.0991 3.97606 12.0742 3.98809V4.39116C12.0742 4.39116 12.1323 4.37311 12.1655 4.36108Z" fill="#A63D16"/>
<path d="M12.0825 4.39135V3.98828C12.0825 3.98828 12.0327 4.00633 12.0244 4.01836V4.42142C12.0244 4.42142 12.0576 4.40338 12.0825 4.39135Z" fill="#A23B15"/>
<path d="M12.0249 4.42064V4.01758C12.0249 4.01758 12 4.03563 12 4.04766V4.45072C12 4.45072 12.0083 4.43267 12.0249 4.42064Z" fill="#9E3A13"/>
<path d="M12.0083 4.45156L12 4.04248V4.0485L12.0083 4.45156Z" fill="#9B3812"/>
<path d="M11.9326 3.65537C9.35514 3.27741 12.4215 2.80085 18.7781 2.59543C25.1346 2.39002 32.3945 2.52148 34.972 2.90766C37.5494 3.28563 34.483 3.76219 28.1264 3.9676C21.7616 4.17302 14.51 4.04155 11.9326 3.65537ZM12.8276 3.62251C15.2062 3.97582 21.9025 4.09907 27.7701 3.91009C33.6377 3.7211 36.472 3.27741 34.0852 2.93231C31.7067 2.579 25.0103 2.45575 19.1427 2.64473C13.2752 2.83371 10.4408 3.27741 12.8276 3.62251" fill="#888889"/>
<path d="M34.9477 3.18812V2.62939C34.9477 2.62939 34.9477 2.64583 34.9394 2.65404C34.9394 2.65404 34.9311 2.67048 34.9228 2.67869C34.9145 2.68691 34.898 2.70334 34.8731 2.71156H34.8648C34.8648 2.71156 34.8234 2.73621 34.8068 2.74443H34.7819C34.7819 2.74443 34.7322 2.76908 34.7073 2.77729H34.6825C34.6825 2.77729 34.6079 2.80194 34.5665 2.81838H34.5333C34.5333 2.81838 34.467 2.84303 34.4256 2.85124H34.3758C34.3758 2.85124 34.293 2.87589 34.2515 2.88411H34.2101C34.1521 2.90054 34.0941 2.90876 34.0278 2.92519H33.9946C33.9366 2.94162 33.8786 2.94984 33.8206 2.95806H33.7543C33.6963 2.97449 33.6383 2.98271 33.5802 2.99092H33.5139C33.4311 3.00736 33.3482 3.01557 33.257 3.03201H33.2156C33.1327 3.04844 33.0415 3.05666 32.9504 3.06487H32.8758C32.7681 3.08131 32.6603 3.09774 32.5443 3.10596H32.5029C32.3868 3.12239 32.2708 3.13061 32.1465 3.13882H32.0719C31.931 3.15526 31.7901 3.16347 31.6409 3.17991H31.5581C31.4089 3.19634 31.2514 3.20456 31.0857 3.22099H31.0111C30.8868 3.23742 30.7542 3.23742 30.6216 3.24564H30.5221C30.3812 3.26207 30.2486 3.27029 30.0995 3.27851H30.0166C29.9171 3.28672 29.8177 3.29494 29.7182 3.29494H29.5442C29.4779 3.30316 29.4199 3.31137 29.3536 3.31137C29.2624 3.31137 29.163 3.31959 29.0718 3.3278H28.9972C28.8729 3.3278 28.7486 3.34424 28.6243 3.34424H28.5414C28.442 3.34424 28.3508 3.35245 28.2513 3.36067H28.1187C28.011 3.36889 27.9033 3.3771 27.7955 3.3771C27.6546 3.3771 27.522 3.38532 27.3811 3.39354C27.3066 3.39354 27.2237 3.39354 27.1408 3.39354C27.0745 3.39354 27.0165 3.39354 26.9502 3.39354C26.627 3.40175 26.2955 3.40997 25.964 3.41819C25.8645 3.41819 25.7651 3.41819 25.6656 3.41819H25.5164C25.3507 3.41819 25.1849 3.4264 25.0192 3.4264H24.9695C24.8037 3.4264 24.6297 3.4264 24.4639 3.4264H24.4142C24.2485 3.4264 24.0744 3.4264 23.9087 3.4264H23.8589C23.6849 3.4264 23.5109 3.4264 23.3368 3.4264H23.312C22.9473 3.4264 22.5909 3.4264 22.2346 3.4264H22.1931C22.0274 3.4264 21.8699 3.4264 21.7125 3.4264H21.6047C21.4473 3.4264 21.2898 3.4264 21.1323 3.4264H21.1075C20.95 3.4264 20.7843 3.4264 20.6268 3.4264C20.5688 3.4264 20.5025 3.4264 20.4445 3.4264C20.3367 3.4264 20.2373 3.4264 20.1295 3.4264H19.9223C19.8312 3.4264 19.74 3.4264 19.6406 3.4264C19.5577 3.4264 19.4831 3.4264 19.4002 3.4264C19.3091 3.4264 19.2262 3.4264 19.135 3.4264C19.0522 3.4264 18.9776 3.4264 18.8947 3.4264C18.8118 3.4264 18.7289 3.4264 18.6378 3.4264C18.5549 3.4264 18.472 3.4264 18.3891 3.4264C18.3063 3.4264 18.2234 3.4264 18.1405 3.4264C18.0576 3.4264 17.9665 3.4264 17.8836 3.4264C17.809 3.4264 17.7344 3.4264 17.6598 3.4264C17.5687 3.4264 17.4775 3.4264 17.3864 3.41819C17.3118 3.41819 17.2455 3.41819 17.1709 3.41819C17.0714 3.41819 16.9803 3.41819 16.8808 3.40997C16.8145 3.40997 16.7482 3.40997 16.6902 3.40997C16.5742 3.40997 16.4499 3.40175 16.3338 3.39354C16.2841 3.39354 16.2427 3.39354 16.1929 3.39354C16.0272 3.39354 15.8614 3.3771 15.6957 3.36889C15.5714 3.36889 15.4554 3.36067 15.3393 3.35245H15.273C15.1819 3.34424 15.0907 3.33602 14.9995 3.33602C14.9415 3.33602 14.8918 3.33602 14.8338 3.3278C14.7675 3.3278 14.7012 3.31959 14.6349 3.31137C14.5852 3.31137 14.5271 3.31137 14.4774 3.30316C14.4028 3.30316 14.3365 3.29494 14.2619 3.28672H14.1874C14.0879 3.27029 13.9885 3.26207 13.8973 3.25386H13.8559C13.773 3.24564 13.6901 3.23742 13.6155 3.22921H13.5492C13.4663 3.21277 13.3752 3.20456 13.3006 3.19634H13.284C13.2094 3.18812 13.1348 3.17991 13.0685 3.17169H13.0105C12.9359 3.15526 12.8696 3.14704 12.8033 3.13882C12.2315 3.05666 11.958 2.96627 11.958 2.87589V3.4264C11.958 3.51679 12.2315 3.60717 12.8116 3.68934C12.8779 3.69755 12.9525 3.70577 13.0188 3.7222H13.0768C13.1431 3.73863 13.2177 3.74685 13.2923 3.75507H13.3089C13.3918 3.76328 13.4746 3.7715 13.5575 3.78793H13.6238C13.6984 3.80437 13.7813 3.81258 13.8641 3.81258H13.9056C13.9967 3.8208 14.0962 3.82902 14.1956 3.83723H14.2702L14.3697 3.85367H14.4774C14.5271 3.86188 14.5852 3.8701 14.6349 3.8701C14.7012 3.8701 14.7675 3.87832 14.8255 3.88653C14.8835 3.88653 14.9415 3.88653 14.9913 3.89475H15.0576C15.1239 3.89475 15.1902 3.90297 15.2565 3.91118H15.331C15.4388 3.9194 15.5465 3.92762 15.6543 3.93583H15.6791C15.8449 3.94405 16.0106 3.95227 16.1764 3.96048H16.2012C16.2012 3.96048 16.2758 3.96048 16.3173 3.96048C16.4333 3.96048 16.5493 3.9687 16.6653 3.97692H16.8642C16.9554 3.98513 17.0549 3.99335 17.146 3.99335H17.3615C17.4527 4.00157 17.5355 4.00978 17.6267 4.00978H17.8587C17.9416 4.018 18.0328 4.018 18.1157 4.02622H18.356C18.4389 4.02622 18.5218 4.03443 18.6046 4.03443C18.6544 4.03443 18.6958 4.03443 18.7455 4.03443H18.8615C18.9361 4.03443 19.019 4.03443 19.0936 4.03443H19.7234L19.8809 4.05087H20.1875C20.2538 4.05087 20.3284 4.05087 20.3947 4.05087H20.6517C20.7843 4.05087 20.9169 4.05087 21.0577 4.05087H21.0826C21.2069 4.05087 21.3395 4.05087 21.4638 4.05087H21.7953C21.9031 4.05087 22.0108 4.05087 22.1268 4.05087H22.1931C22.276 4.05087 22.3589 4.05087 22.4418 4.05087C22.5329 4.05087 22.6158 4.05087 22.707 4.05087H22.7235C22.8064 4.05087 22.8893 4.05087 22.9805 4.05087C23.0716 4.05087 23.1628 4.05087 23.2457 4.05087H23.2871C23.3534 4.05087 23.4197 4.05087 23.486 4.05087H23.9667C24.0495 4.05087 24.1324 4.05087 24.207 4.05087H24.4722C24.5634 4.05087 24.6463 4.05087 24.7374 4.05087H25.0026C25.1352 4.05087 25.2761 4.04265 25.4087 4.04265H25.6242C25.6988 4.04265 25.7816 4.04265 25.8562 4.03443H25.9142C26.2458 4.02622 26.5773 4.018 26.9005 4.00978H27.0911C27.174 4.00978 27.2485 4.00157 27.3231 4.00157C27.3811 4.00157 27.4309 4.00157 27.4889 4.00157C27.5718 4.00157 27.6546 4.00157 27.7375 4.00157H28.0524L28.2016 3.98513H28.2596C28.3342 3.98513 28.4005 3.98513 28.4668 3.97692H28.5911C28.7072 3.9687 28.8232 3.96048 28.9309 3.96048H29.0138C29.0967 3.96048 29.1795 3.95227 29.2707 3.94405H29.3039C29.3702 3.94405 29.4282 3.94405 29.4945 3.93583H29.6768C29.768 3.9194 29.8674 3.9194 29.9586 3.91118H30.058C30.1989 3.89475 30.3398 3.89475 30.4807 3.88653H30.5801C30.7127 3.8701 30.8453 3.86188 30.9779 3.85367H31.0442C31.21 3.83723 31.3592 3.82902 31.5166 3.8208H31.5995C31.7487 3.80437 31.8896 3.79615 32.0305 3.77972H32.1051C32.2294 3.76328 32.3454 3.75507 32.4614 3.74685H32.5029C32.6189 3.73042 32.7266 3.7222 32.8344 3.71398H32.9089C33.0001 3.69755 33.083 3.68934 33.1659 3.68112H33.2156C33.3067 3.66469 33.3896 3.65647 33.4725 3.64825H33.5388C33.5968 3.63182 33.6548 3.6236 33.7128 3.61539H33.7791C33.8372 3.59895 33.9035 3.59074 33.9532 3.58252H33.9863C34.0526 3.56609 34.1106 3.55787 34.1687 3.54965H34.2184C34.2598 3.53322 34.3013 3.525 34.3344 3.51679H34.3841C34.3841 3.51679 34.4587 3.49214 34.4919 3.48392H34.525C34.5665 3.46749 34.6079 3.45105 34.641 3.44284H34.6659C34.6659 3.44284 34.7156 3.41819 34.7405 3.40997H34.7654C34.7654 3.40997 34.8068 3.38532 34.8234 3.36889H34.8317C34.8317 3.36889 34.8648 3.33602 34.8814 3.3278C34.8814 3.3278 34.8814 3.31137 34.8897 3.31137C34.8897 3.31137 34.8897 3.29494 34.8897 3.28672L34.9477 3.18812Z" fill="#666667"/>
<path d="M23.8012 1.2216V1.38593C23.8012 1.38593 23.8012 1.38593 23.7763 1.37771C23.7597 1.37771 23.7431 1.37771 23.7266 1.37771V1.21338C23.7266 1.21338 23.7597 1.21338 23.7763 1.21338C23.7929 1.21338 23.8012 1.21338 23.8012 1.2216Z" fill="#90330C"/>
<path d="M23.7265 1.21338V1.37771H23.71V1.21338H23.7265Z" fill="#93340E"/>
<path d="M23.7021 1.20557V1.3699H23.6855V1.20557H23.7021Z" fill="#973610"/>
<path d="M23.6855 1.20557V1.3699H23.6689V1.20557H23.6855Z" fill="#9B3812"/>
<path d="M23.6689 1.20557V1.3699H23.6523V1.20557H23.6689Z" fill="#9E3A13"/>
<path d="M23.6523 1.20557V1.3699H23.6357V1.20557H23.6523Z" fill="#A23B15"/>
<path d="M23.6357 1.20557V1.3699H23.6191V1.20557H23.6357Z" fill="#A63D16"/>
<path d="M23.6191 1.20557V1.3699H23.6025V1.20557H23.6191Z" fill="#AA3F18"/>
<path d="M23.6025 1.20557V1.3699H23.5859V1.20557H23.6025Z" fill="#AF4119"/>
<path d="M23.5859 1.20557V1.3699H23.5693V1.20557H23.5859Z" fill="#B2421B"/>
<path d="M23.5693 1.20557V1.3699H23.5527V1.20557H23.5693Z" fill="#B6441C"/>
<path d="M23.5527 1.20557V1.3699H23.5361V1.20557H23.5527Z" fill="#BA461D"/>
<path d="M23.5439 1.20557V1.3699H23.5273V1.20557H23.5439Z" fill="#BE471E"/>
<path d="M23.5278 1.20557V1.3699H23.5195V1.20557H23.5278Z" fill="#C2491F"/>
<path d="M23.5112 1.20557V1.3699H23.5029V1.20557H23.5112Z" fill="#C64A20"/>
<path d="M23.5024 1.20557V1.3699H23.4941V1.20557H23.5024Z" fill="#CA4C21"/>
<path d="M23.4946 1.20557V1.3699C23.4946 1.3699 23.4946 1.3699 23.4863 1.3699V1.20557C23.4863 1.20557 23.4863 1.20557 23.4946 1.20557Z" fill="#CE4E22"/>
<path d="M23.478 1.20557V1.3699H23.4697V1.20557H23.478Z" fill="#D24F23"/>
<path d="M23.4692 1.20557V1.3607H23.4609V1.20557H23.4692Z" fill="#D65124"/>
<path d="M23.4614 1.20557V1.3607H23.4531V1.20557H23.4614Z" fill="#DA5225"/>
<path d="M23.4526 1.20557V1.3607H23.4443V1.20557H23.4526Z" fill="#DE5426"/>
<path d="M23.4448 1.20557V1.3607H23.4365V1.20557H23.4448Z" fill="#E25526"/>
<path d="M23.436 1.20557V1.36169L23.4277 1.3699V1.20557H23.436Z" fill="#E55627"/>
<path d="M23.4282 1.20557V1.3699L23.4199 1.20557H23.4282Z" fill="#EA5828"/>
<path d="M23.4199 1.20557L23.4282 1.3699H23.4199V1.20557Z" fill="#F05A29"/>
<path d="M23.4194 1.20557V1.3699H23.4111V1.20557H23.4194Z" fill="#F26F3C"/>
<path d="M23.4116 1.20557V1.3699H23.4033V1.20557H23.4116Z" fill="#F37746"/>
<path d="M23.4028 1.20557V1.3699H23.3945V1.20557H23.4028Z" fill="#F37D4D"/>
<path d="M23.395 1.20557V1.3699H23.3867V1.20557H23.395Z" fill="#F48153"/>
<path d="M23.3789 1.20557V1.3699H23.3623V1.20557H23.3789Z" fill="#F48558"/>
<path d="M23.3623 1.20557V1.3699H23.3291V1.20557H23.3623Z" fill="#F5895D"/>
<path d="M23.3291 1.20557V1.3699H23.3125V1.20557H23.3291Z" fill="#F48558"/>
<path d="M23.312 1.20557V1.3699H23.3037V1.20557H23.312Z" fill="#F48153"/>
<path d="M23.3042 1.20557V1.3699H23.2959V1.20557H23.3042Z" fill="#F37D4D"/>
<path d="M23.2876 1.20557V1.3699H23.2793V1.20557H23.2876Z" fill="#F37746"/>
<path d="M23.2788 1.20557V1.3699H23.2705V1.20557H23.2788Z" fill="#F26F3C"/>
<path d="M23.271 1.20557V1.3699H23.2627V1.20557H23.271Z" fill="#F05A29"/>
<path d="M23.2544 1.20557V1.3699H23.2461V1.20557H23.2544Z" fill="#EA5828"/>
<path d="M23.2456 1.20557V1.3699H23.2373V1.20557H23.2456Z" fill="#E55627"/>
<path d="M23.2373 1.21338V1.37771H23.2207V1.21338H23.2373Z" fill="#E25526"/>
<path d="M23.2207 1.21338V1.37771H23.2041V1.21338H23.2207Z" fill="#DE5426"/>
<path d="M23.2041 1.21338V1.37771H23.1875V1.21338H23.2041Z" fill="#DA5225"/>
<path d="M23.1875 1.21338V1.37771H23.1709V1.21338H23.1875Z" fill="#D65124"/>
<path d="M23.1714 1.21338V1.37771H23.1631V1.21338H23.1714Z" fill="#D24F23"/>
<path d="M23.1548 1.21338V1.37771H23.1465V1.21338H23.1548Z" fill="#CE4E22"/>
<path d="M23.146 1.21338V1.37771H23.1377V1.21338H23.146Z" fill="#CA4C21"/>
<path d="M23.1382 1.21338V1.37771H23.1299V1.2216L23.1382 1.21338Z" fill="#C64A20"/>
<path d="M23.1294 1.22217V1.3773H23.1211V1.22217H23.1294Z" fill="#C2491F"/>
<path d="M23.1216 1.22217V1.3773H23.1133V1.22217H23.1216Z" fill="#BE471E"/>
<path d="M23.1128 1.22217V1.37829L23.1045 1.38651V1.22217H23.1128Z" fill="#BA461D"/>
<path d="M23.105 1.22217V1.38651L23.0967 1.22217H23.105Z" fill="#B6441C"/>
<path d="M23.0967 1.22217L23.105 1.38651H23.0967V1.22217Z" fill="#B2421B"/>
<path d="M23.0962 1.22217V1.38651H23.0879V1.22217H23.0962Z" fill="#AF4119"/>
<path d="M23.0884 1.23096V1.38609L23.0801 1.23096H23.0884Z" fill="#A23B15"/>
<path d="M23.0801 1.23096L23.0884 1.38707L23.0801 1.39529V1.23096Z" fill="#9E3A13"/>
<path d="M23.0801 1.23145V1.39578C23.0801 1.39578 23.0884 1.39578 23.1049 1.40399V1.23966C23.1049 1.23966 23.0801 1.23966 23.0801 1.23145Z" fill="#90330C"/>
<path d="M23.1045 1.23926V1.40359C23.1045 1.40359 23.1376 1.40359 23.1542 1.40359V1.23926C23.1542 1.23926 23.1211 1.23926 23.1045 1.23926Z" fill="#90330C"/>
<path d="M23.1543 1.24805V1.41238H23.1792V1.25626H23.1543" fill="#93340E"/>
<path d="M23.1787 1.24805V1.41238H23.1953V1.24805H23.1787Z" fill="#973610"/>
<path d="M23.1953 1.24805V1.41238H23.2119V1.24805H23.1953Z" fill="#9B3812"/>
<path d="M23.2119 1.24805V1.41238H23.2285V1.24805H23.2119Z" fill="#9E3A13"/>
<path d="M23.2285 1.24805V1.41238H23.2451V1.24805H23.2285Z" fill="#A23B15"/>
<path d="M23.2451 1.24805V1.41238H23.2617V1.24805H23.2451Z" fill="#A63D16"/>
<path d="M23.2617 1.24707V1.4114H23.2783V1.24707H23.2617Z" fill="#AA3F18"/>
<path d="M23.2783 1.24805V1.41238H23.2949V1.24805H23.2783Z" fill="#AF4119"/>
<path d="M23.2949 1.24805V1.41238H23.3115V1.24805H23.2949Z" fill="#B2421B"/>
<path d="M23.3115 1.24805V1.41238H23.3281V1.24805H23.3115Z" fill="#B6441C"/>
<path d="M23.3281 1.24805V1.41238H23.3447V1.24805H23.3281Z" fill="#BA461D"/>
<path d="M23.3369 1.24805V1.41238H23.3535V1.24805H23.3369Z" fill="#BE471E"/>
<path d="M23.3535 1.24805V1.41238H23.3701V1.24805H23.3535Z" fill="#C2491F"/>
<path d="M23.3701 1.24805V1.41238H23.3867V1.24805H23.3701Z" fill="#C64A20"/>
<path d="M23.3779 1.24805V1.41238H23.3862V1.24805H23.3779Z" fill="#CA4C21"/>
<path d="M23.3867 1.24805V1.41238C23.3867 1.41238 23.3867 1.41238 23.395 1.41238V1.24805C23.395 1.24805 23.395 1.24805 23.3867 1.24805Z" fill="#CE4E22"/>
<path d="M23.4023 1.24805V1.41238H23.4106V1.24805H23.4023Z" fill="#D24F23"/>
<path d="M23.4111 1.24805V1.41238H23.4194V1.24805H23.4111Z" fill="#D65124"/>
<path d="M23.4199 1.24805V1.41238H23.4282V1.24805H23.4199Z" fill="#DA5225"/>
<path d="M23.4277 1.24805V1.41238H23.436V1.24805H23.4277Z" fill="#DE5426"/>
<path d="M23.4355 1.24805V1.41238H23.4438V1.24805H23.4355Z" fill="#E25526"/>
<path d="M23.4443 1.24805V1.41238H23.4526V1.24805H23.4443Z" fill="#E55627"/>
<path d="M23.4521 1.24805V1.41238H23.4604L23.4521 1.24805Z" fill="#EA5828"/>
<path d="M23.4521 1.24805L23.4604 1.41238V1.24805H23.4521Z" fill="#F05A29"/>
<path d="M23.4609 1.24805V1.41238H23.4692V1.24805H23.4609Z" fill="#F26F3C"/>
<path d="M23.4688 1.24805V1.41238H23.4853L23.477 1.24805H23.4688Z" fill="#F37746"/>
<path d="M23.4775 1.24805L23.4858 1.41238H23.4941L23.4858 1.24805H23.4775Z" fill="#F37D4D"/>
<path d="M23.4854 1.24805V1.41238H23.5019V1.24805H23.4854Z" fill="#F48153"/>
<path d="M23.502 1.24805V1.41238H23.5185V1.24805H23.502Z" fill="#F48558"/>
<path d="M23.5186 1.24805V1.41238H23.5517V1.24805H23.5186Z" fill="#F5895D"/>
<path d="M23.5518 1.24805V1.41238H23.5683V1.24805H23.5518Z" fill="#F48558"/>
<path d="M23.5684 1.24707V1.4114H23.5766V1.24707H23.5684Z" fill="#F48153"/>
<path d="M23.5771 1.24707V1.4114H23.5854V1.24707H23.5771Z" fill="#F37D4D"/>
<path d="M23.5938 1.24805V1.41238H23.602V1.24805H23.5938Z" fill="#F37746"/>
<path d="M23.6016 1.24805V1.41238H23.6098V1.24805H23.6016Z" fill="#F26F3C"/>
<path d="M23.6104 1.24805V1.41238H23.6186V1.24805H23.6104Z" fill="#F05A29"/>
<path d="M23.6182 1.24805V1.41238H23.6347V1.24805H23.6182Z" fill="#EA5828"/>
<path d="M23.6348 1.24805V1.41238H23.6513V1.24805H23.6348Z" fill="#E55627"/>
<path d="M23.6436 1.24805V1.41238H23.6601V1.24805H23.6436Z" fill="#E25526"/>
<path d="M23.6602 1.24805V1.41238H23.6767V1.24805H23.6602Z" fill="#DE5426"/>
<path d="M23.6768 1.23926V1.40359H23.6933V1.23926H23.6768Z" fill="#DA5225"/>
<path d="M23.6934 1.23926V1.40359H23.7099V1.23926H23.6934Z" fill="#D65124"/>
<path d="M23.71 1.23926V1.40359H23.7265V1.23926H23.71Z" fill="#D24F23"/>
<path d="M23.7178 1.23926V1.40359H23.7343V1.23926H23.7178Z" fill="#CE4E22"/>
<path d="M23.7344 1.23926V1.40359H23.7427V1.23926H23.7344Z" fill="#CA4C21"/>
<path d="M23.7422 1.23926V1.39439H23.7505V1.23926H23.7422Z" fill="#C64A20"/>
<path d="M23.751 1.23926V1.39439H23.7593V1.23926H23.751Z" fill="#C2491F"/>
<path d="M23.7588 1.23966V1.39577H23.7671V1.23145L23.7588 1.23966Z" fill="#BE471E"/>
<path d="M23.7676 1.23145V1.39577H23.7759V1.23145H23.7676Z" fill="#BA461D"/>
<path d="M23.7754 1.23145V1.39577H23.7837V1.23145H23.7754Z" fill="#B6441C"/>
<path d="M23.7842 1.23145V1.39577H23.7925V1.23145H23.7842Z" fill="#AF4119"/>
<path d="M23.792 1.23087V1.38699H23.8003V1.22266L23.792 1.23087Z" fill="#A23B15"/>
<path d="M35.9007 4.42764V3.17871C35.9007 3.17871 35.8924 3.19514 35.8841 3.20336C35.8841 3.20336 35.8758 3.21979 35.8675 3.22801C35.851 3.24444 35.8344 3.25266 35.8178 3.26909H35.8012C35.8012 3.26909 35.7598 3.29374 35.7349 3.30196H35.7101C35.7101 3.30196 35.6604 3.33483 35.6272 3.34304H35.6023C35.6023 3.34304 35.5195 3.37591 35.478 3.38413H35.4449C35.4449 3.38413 35.3703 3.40878 35.3289 3.41699H35.2791C35.2791 3.41699 35.1962 3.44164 35.1465 3.44986H35.0968C35.0305 3.46629 34.9642 3.48273 34.8979 3.49094H34.8647C34.8067 3.50738 34.7404 3.51559 34.6741 3.52381H34.5995C34.5415 3.54024 34.4752 3.54846 34.4089 3.55668H34.3426C34.2515 3.57311 34.1603 3.58954 34.0609 3.59776H34.0111C33.92 3.61419 33.8288 3.62241 33.7294 3.63063H33.6465C33.5305 3.64706 33.4061 3.66349 33.2818 3.67171H33.2321C33.1078 3.68814 32.9835 3.69636 32.8509 3.70458H32.7514L32.6437 3.72101C32.5857 3.72101 32.5194 3.72922 32.4614 3.73744H32.3453C32.2873 3.75387 32.221 3.75388 32.1547 3.76209H32.0304C31.9641 3.77852 31.8895 3.77852 31.8232 3.78674H31.7155L31.6243 3.80317C31.4834 3.81139 31.3425 3.81961 31.2017 3.82782H31.0939C30.9447 3.84426 30.7956 3.85247 30.6381 3.86069H30.5221C30.4226 3.86891 30.3232 3.87712 30.2237 3.88534C30.1574 3.88534 30.0911 3.88534 30.0248 3.89356C29.9585 3.89356 29.8839 3.89356 29.8176 3.90177C29.7182 3.90177 29.6187 3.90999 29.511 3.91821H29.4364C29.3038 3.92642 29.1712 3.93464 29.0386 3.93464H28.9391C28.8397 3.93464 28.7402 3.94286 28.6408 3.95107H28.4916C28.3756 3.95929 28.2596 3.96751 28.1435 3.96751C27.9944 3.96751 27.8452 3.97572 27.6877 3.98394C27.6049 3.98394 27.522 3.98394 27.4391 3.98394C27.3728 3.98394 27.2982 3.98394 27.2319 3.98394C26.8755 3.99216 26.5192 4.00037 26.1628 4.00859C26.0634 4.00859 25.9556 4.00859 25.8479 4.00859H25.6656C25.4832 4.00859 25.3092 4.01681 25.1269 4.02502H25.0771C24.8948 4.02502 24.7125 4.02502 24.5302 4.03324H24.4639C24.2815 4.03324 24.1075 4.03324 23.9252 4.03324H23.8589C23.6683 4.03324 23.4777 4.03324 23.2953 4.03324H23.2787C22.8892 4.03324 22.508 4.03324 22.1185 4.03324H22.0605C21.8864 4.03324 21.7124 4.03324 21.5384 4.03324H21.4306C21.2649 4.03324 21.0908 4.03324 20.9251 4.03324H20.8836C20.7096 4.03324 20.5356 4.03324 20.3698 4.03324C20.3035 4.03324 20.2372 4.03324 20.1709 4.03324C20.0549 4.03324 19.9472 4.03324 19.8311 4.03324C19.7565 4.03324 19.682 4.03324 19.6074 4.03324C19.5079 4.03324 19.4085 4.03324 19.3007 4.03324C19.2178 4.03324 19.1267 4.03324 19.0438 4.03324C18.9526 4.03324 18.8532 4.03324 18.762 4.03324C18.6709 4.03324 18.588 4.03324 18.4968 4.03324C18.4057 4.03324 18.3145 4.03324 18.2233 4.03324C18.1322 4.03324 18.0493 4.03324 17.9581 4.03324C17.867 4.03324 17.7841 4.03324 17.6929 4.03324C17.6018 4.03324 17.5106 4.03324 17.4112 4.03324C17.3283 4.03324 17.2454 4.03324 17.1625 4.03324C17.0631 4.03324 16.9636 4.03324 16.8725 4.02502C16.7979 4.02502 16.715 4.02502 16.6404 4.02502C16.5327 4.02502 16.4332 4.02502 16.3255 4.01681C16.2592 4.01681 16.1846 4.01681 16.1183 4.01681C15.994 4.01681 15.8614 4.00859 15.7371 4.00037C15.6874 4.00037 15.6376 4.00037 15.5879 4.00037C15.4056 4.00037 15.2232 3.98394 15.0492 3.97572C14.9166 3.97572 14.7923 3.95929 14.668 3.95929H14.5934C14.4939 3.95107 14.3945 3.94286 14.295 3.93464C14.237 3.93464 14.179 3.93464 14.1127 3.92642C14.0381 3.92642 13.9718 3.91821 13.8972 3.90999C13.8392 3.90999 13.7812 3.90999 13.7232 3.90177C13.6486 3.90177 13.5657 3.89356 13.4911 3.88534H13.4083C13.3005 3.86891 13.1928 3.86069 13.0933 3.85247H13.0519C12.9607 3.84426 12.8779 3.83604 12.795 3.82782H12.7204C12.6292 3.81139 12.5381 3.80317 12.4469 3.79496H12.4303C12.3475 3.78674 12.2729 3.77031 12.1983 3.76209H12.1403C12.0574 3.74566 11.9828 3.73744 11.9165 3.72101C11.527 3.66349 11.2701 3.60598 11.1292 3.54024C11.0463 3.50738 11.0049 3.46629 11.0049 3.43343V4.68235C11.0132 4.78095 11.3115 4.87955 11.9331 4.96994C12.0077 4.97815 12.0823 4.99459 12.1569 5.0028H12.2149C12.2895 5.01924 12.364 5.02745 12.4469 5.03567H12.4635C12.5464 5.04389 12.6375 5.06032 12.737 5.06854H12.8116C12.8944 5.08497 12.9773 5.09318 13.0685 5.1014H13.1099C13.2094 5.11783 13.3171 5.12605 13.4248 5.13427H13.5077L13.6237 5.1507H13.7398C13.7978 5.16713 13.8558 5.16713 13.9138 5.16713C13.9801 5.16713 14.0547 5.17535 14.121 5.18357C14.179 5.18357 14.237 5.18357 14.3033 5.19178H14.3779C14.4525 5.2 14.5271 5.20822 14.6017 5.20822H14.6763C14.7923 5.21643 14.9083 5.22465 15.0243 5.23287H15.0575C15.2315 5.24108 15.4139 5.2493 15.5962 5.25752H15.7454C15.8697 5.26573 16.0023 5.27395 16.1349 5.28217H16.3421C16.4415 5.29038 16.5493 5.2986 16.657 5.2986H16.7647C16.7647 5.2986 16.8476 5.2986 16.889 5.2986C16.9885 5.2986 17.0797 5.2986 17.1791 5.30682H17.4277C17.5189 5.31503 17.6101 5.31503 17.7095 5.32325H17.9747C18.0659 5.33147 18.1488 5.33147 18.2399 5.33968C18.2896 5.33968 18.3394 5.33968 18.3891 5.33968H18.5051C18.5963 5.33968 18.6792 5.33968 18.7703 5.33968H19.0521C19.135 5.33968 19.2261 5.33968 19.309 5.3479H19.4499C19.5079 5.3479 19.5576 5.3479 19.6157 5.3479C19.6902 5.3479 19.7648 5.3479 19.8394 5.3479H19.9554C20.03 5.3479 20.1046 5.3479 20.1792 5.3479H20.461C20.6019 5.3479 20.751 5.3479 20.9002 5.3479H20.9417C21.0743 5.3479 21.2069 5.3479 21.3395 5.3479H21.7041C21.8201 5.3479 21.9445 5.3479 22.0605 5.3479H22.1351C22.2262 5.3479 22.3091 5.3479 22.4003 5.3479C22.4997 5.3479 22.5909 5.3479 22.6903 5.3479C22.7898 5.3479 22.8809 5.3479 22.9804 5.3479C23.0798 5.3479 23.171 5.3479 23.2705 5.3479H23.5357C23.6185 5.3479 23.7097 5.3479 23.7926 5.3479H24.0495C24.1407 5.3479 24.2235 5.3479 24.3147 5.3479H24.6048C24.7042 5.3479 24.7954 5.3479 24.8948 5.3479H25.1849C25.3341 5.3479 25.4832 5.33968 25.6241 5.33968H25.6821C25.7402 5.33968 25.7982 5.33968 25.8645 5.33968C25.9473 5.33968 26.0302 5.33968 26.1131 5.33968H26.1711C26.5275 5.33147 26.8838 5.32325 27.2402 5.31503H27.4391C27.5303 5.31503 27.6131 5.30682 27.7043 5.2986C27.7623 5.2986 27.8203 5.2986 27.8783 5.2986C27.9695 5.2986 28.0607 5.2986 28.1518 5.29038H28.4999L28.6491 5.27395H28.7154C28.7983 5.27395 28.8728 5.26573 28.9557 5.26573H29.08C29.2043 5.25752 29.3287 5.2493 29.4447 5.2493H29.5359C29.627 5.2493 29.7182 5.24108 29.8093 5.23287H29.8425C29.9171 5.23287 29.9917 5.22465 30.058 5.22465C30.1077 5.22465 30.1657 5.22465 30.2154 5.22465H30.2486C30.348 5.22465 30.4558 5.21643 30.5552 5.20822H30.663C30.8204 5.19178 30.9696 5.18357 31.1188 5.17535H31.2265C31.3674 5.15892 31.5083 5.1507 31.6492 5.14248H31.7403L31.8481 5.12605C31.9227 5.12605 31.989 5.11783 32.0553 5.10962H32.1796L32.2873 5.09319H32.3702L32.4862 5.07675C32.5442 5.07675 32.6105 5.06854 32.6685 5.06032H32.826L32.8757 5.04389C33.0083 5.03567 33.1326 5.01924 33.2652 5.01102H33.3067C33.431 4.99459 33.5553 4.98637 33.6713 4.96994H33.7542C33.8454 4.9535 33.9448 4.94529 34.0277 4.92885H34.0774C34.1769 4.91242 34.268 4.9042 34.3592 4.88777H34.4338C34.5001 4.87134 34.5581 4.86312 34.6244 4.8549H34.699C34.7653 4.83847 34.8233 4.83025 34.8896 4.81382H34.9228C34.9891 4.79739 35.0554 4.78917 35.1217 4.77274H35.1714C35.2128 4.7563 35.2626 4.74809 35.304 4.73987H35.3537C35.3537 4.73987 35.4283 4.71522 35.4697 4.707H35.5112C35.5609 4.69057 35.6023 4.67414 35.6355 4.66592H35.6604C35.6604 4.66592 35.7184 4.64127 35.7432 4.63305H35.7681C35.7681 4.63305 35.8178 4.60019 35.8344 4.59197H35.851C35.851 4.59197 35.8924 4.5591 35.9007 4.55089C35.9007 4.55089 35.9007 4.53445 35.909 4.53445C35.909 4.53445 35.909 4.5098 35.909 4.50159L35.9007 4.42764Z" fill="#C0C0C1"/>
<path d="M35.8919 2.62774V1.13232C35.8919 1.13232 35.8754 1.14876 35.8754 1.15697C35.8754 1.15697 35.8671 1.17341 35.8588 1.18162C35.8422 1.19806 35.8256 1.20627 35.8091 1.22271H35.7925C35.7925 1.22271 35.751 1.24736 35.7262 1.25557H35.7013C35.7013 1.25557 35.6516 1.28844 35.6184 1.29666H35.5936C35.5936 1.29666 35.5107 1.32952 35.4693 1.33774H35.4361C35.4361 1.33774 35.3615 1.36239 35.3201 1.37061H35.2704C35.2704 1.37061 35.1875 1.39526 35.146 1.40347H35.0963C35.03 1.4199 34.972 1.43634 34.8974 1.44455H34.8643C34.8063 1.46099 34.74 1.4692 34.6737 1.47742H34.5991C34.5328 1.49385 34.4748 1.50207 34.4085 1.51029H34.3422C34.251 1.52672 34.1598 1.54315 34.0604 1.55137H34.0107C33.9195 1.5678 33.8283 1.57602 33.7289 1.58424H33.646C33.53 1.60067 33.4057 1.6171 33.2813 1.62532H33.2316C33.1073 1.64175 32.983 1.64997 32.8504 1.65819H32.7509L32.6432 1.67462C32.5852 1.67462 32.5189 1.68284 32.4609 1.69105H32.3449C32.2786 1.70749 32.2205 1.70749 32.1542 1.7157H32.0382C31.9719 1.73214 31.8973 1.73214 31.8227 1.74035H31.715L31.6238 1.75679C31.483 1.765 31.3421 1.77322 31.2012 1.78144H31.0934C30.9443 1.79787 30.7951 1.80608 30.6376 1.8143H30.5465C30.4387 1.82252 30.331 1.83073 30.2232 1.83895C30.1569 1.83895 30.0906 1.83895 30.0326 1.84717C29.9663 1.84717 29.9 1.84717 29.8254 1.85538C29.726 1.85538 29.6183 1.8636 29.5105 1.87182H29.4359C29.3033 1.88003 29.1707 1.88825 29.0381 1.88825H28.9387C28.8392 1.88825 28.7398 1.89647 28.632 1.90468H28.4829C28.3668 1.9129 28.2508 1.92112 28.1348 1.92112C27.9856 1.92112 27.8364 1.92933 27.679 1.93755C27.5961 1.93755 27.5132 1.93755 27.4303 1.93755C27.364 1.93755 27.2894 1.93755 27.2231 1.93755C26.8668 1.94577 26.5104 1.95398 26.1541 1.9622C26.0463 1.9622 25.9386 1.9622 25.8308 1.9622H25.6651C25.4828 1.9622 25.3004 1.97042 25.1181 1.97863H25.0601C24.8778 1.97863 24.6954 1.97863 24.5048 1.98685H24.4468C24.2645 1.98685 24.0822 1.98685 23.8998 1.98685H23.8501C23.6595 1.98685 23.4772 1.98685 23.2866 1.98685H23.2617C23.0628 1.98685 22.8722 1.98685 22.6816 1.98685H22.665C22.4744 1.98685 22.2838 1.98685 22.1014 1.98685H22.06C21.886 1.98685 21.7119 1.98685 21.5296 1.98685H21.4219C21.2478 1.98685 21.0655 1.98685 20.8915 1.98685H20.8749C20.7008 1.98685 20.5268 1.98685 20.3611 1.98685H20.1539C20.0378 1.98685 19.9301 1.98685 19.8141 1.98685H19.5986C19.4909 1.98685 19.3914 1.98685 19.2837 1.98685C19.2008 1.98685 19.1179 1.98685 19.035 1.98685C18.9356 1.98685 18.8361 1.98685 18.745 1.98685C18.6621 1.98685 18.5709 1.98685 18.4881 1.98685C18.3969 1.98685 18.3057 1.98685 18.2146 1.98685C18.1234 1.98685 18.0323 1.98685 17.9494 1.98685C17.8665 1.98685 17.7753 1.98685 17.6925 1.98685C17.6013 1.98685 17.5018 1.98685 17.4107 1.98685C17.3278 1.98685 17.2449 1.98685 17.1621 1.98685C17.0626 1.98685 16.9714 1.98685 16.872 1.97863C16.7974 1.97863 16.7145 1.97863 16.6399 1.97863C16.5405 1.97863 16.4328 1.97863 16.3333 1.97042C16.2587 1.97042 16.1924 1.97042 16.1178 1.97042C15.9935 1.97042 15.8692 1.9622 15.7449 1.95398H15.5874C15.4051 1.93755 15.2228 1.92933 15.0487 1.92112C14.9244 1.92112 14.7918 1.90468 14.6675 1.90468H14.5846C14.4852 1.89647 14.394 1.88825 14.2946 1.88003H14.1122C14.0377 1.8636 13.9714 1.85538 13.8968 1.85538C13.8388 1.85538 13.7807 1.85538 13.7227 1.84717C13.6481 1.84717 13.5735 1.83895 13.499 1.83073H13.4161C13.3083 1.8143 13.2089 1.80608 13.1012 1.79787H13.0597C12.9686 1.78965 12.8857 1.78144 12.8028 1.77322H12.7282C12.6371 1.75679 12.5459 1.74857 12.4547 1.74035H12.4382C12.3553 1.73214 12.2807 1.7157 12.2061 1.70749H12.1481C12.0652 1.69105 11.9906 1.68284 11.9243 1.6664C11.3028 1.57602 11.0127 1.47742 11.0127 1.37882V2.86603C11.021 2.96462 11.3193 3.06322 11.9409 3.15361C12.0155 3.16182 12.0901 3.17826 12.1647 3.18647H12.2227C12.2973 3.20291 12.3719 3.21112 12.4547 3.21934H12.4713C12.5625 3.22756 12.6536 3.24399 12.7448 3.25221H12.8194C12.9023 3.26864 12.9934 3.27686 13.0763 3.28507H13.1177C13.2172 3.30151 13.3249 3.30972 13.4327 3.31794H13.5155L13.6233 3.33437C13.6233 3.33437 13.6979 3.33437 13.7393 3.33437C13.7973 3.33437 13.8553 3.34259 13.9133 3.3508C13.9796 3.3508 14.0542 3.35902 14.1288 3.36724C14.1868 3.36724 14.2448 3.36724 14.3111 3.37545H14.3857C14.4603 3.38367 14.5266 3.39189 14.6012 3.39189H14.6841C14.8001 3.4001 14.9161 3.40832 15.0322 3.41654H15.0653C15.2393 3.42475 15.4217 3.43297 15.604 3.44119H15.7615C15.8858 3.4494 16.0101 3.45762 16.1344 3.46584H16.209C16.2587 3.46584 16.3002 3.46584 16.3499 3.46584C16.4493 3.46584 16.5488 3.46584 16.6565 3.47405H16.8886C16.988 3.48227 17.0792 3.49049 17.1786 3.49049H17.4273C17.5184 3.4987 17.6179 3.4987 17.709 3.50692C17.7588 3.50692 17.8002 3.50692 17.8499 3.50692H17.966C18.0571 3.50692 18.1483 3.50692 18.2312 3.51514C18.2809 3.51514 18.3306 3.51514 18.3803 3.51514H18.5046C18.5875 3.51514 18.6787 3.51514 18.7616 3.51514C18.8113 3.51514 18.861 3.51514 18.919 3.51514H19.0599C19.1428 3.51514 19.2257 3.51514 19.3085 3.51514H19.4577C19.5157 3.51514 19.5737 3.51514 19.6318 3.51514C19.7063 3.51514 19.7726 3.51514 19.8472 3.51514H19.9633C20.0378 3.51514 20.1124 3.51514 20.187 3.51514C20.2533 3.51514 20.3196 3.51514 20.3942 3.51514H20.4688C20.6097 3.51514 20.7589 3.51514 20.908 3.51514H20.9246C21.0655 3.51514 21.2064 3.51514 21.3473 3.51514H21.7119C21.828 3.51514 21.9523 3.51514 22.0683 3.51514H22.1346C22.2258 3.51514 22.3169 3.51514 22.4081 3.51514C22.5075 3.51514 22.5987 3.51514 22.6981 3.51514H22.7147C22.8059 3.51514 22.897 3.51514 22.9882 3.51514C23.0877 3.51514 23.1788 3.51514 23.2783 3.51514H24.0573C24.1485 3.51514 24.2313 3.50692 24.3225 3.50692H24.6126C24.712 3.50692 24.8032 3.50692 24.9026 3.50692H25.1927C25.3419 3.50692 25.4911 3.4987 25.6319 3.4987H25.8557C25.9386 3.4987 26.0297 3.4987 26.1126 3.49049H26.1789C26.5353 3.48227 26.8916 3.47405 27.248 3.46584H27.4552C27.5381 3.46584 27.621 3.45762 27.7038 3.4494C27.7618 3.4494 27.8281 3.4494 27.8862 3.4494C27.9773 3.4494 28.0685 3.4494 28.1596 3.44119H28.3503C28.4083 3.43297 28.458 3.43297 28.5077 3.43297H28.7149C28.7978 3.42475 28.8724 3.41654 28.9552 3.41654H29.0796C29.2039 3.40832 29.3282 3.4001 29.4442 3.4001H29.5271C29.6183 3.4001 29.7177 3.39189 29.8089 3.38367H30.0492C30.1072 3.36724 30.1569 3.36724 30.215 3.36724H30.2481C30.3558 3.36724 30.4636 3.35902 30.5713 3.3508H30.6625C30.8199 3.33437 30.9691 3.32615 31.1183 3.31794H31.226C31.3669 3.30151 31.5161 3.29329 31.6487 3.28507H31.7399L31.8476 3.26864C31.9222 3.26864 31.9885 3.26042 32.0631 3.25221H32.1791L32.2868 3.23577H32.3697L32.4857 3.21934C32.552 3.21934 32.6101 3.21112 32.6681 3.20291H32.8255L32.8753 3.18647C33.0079 3.17826 33.1322 3.16182 33.2565 3.15361H33.3062C33.4305 3.13717 33.5548 3.12896 33.6709 3.11252H33.7537C33.8532 3.09609 33.9444 3.08787 34.0355 3.07144H34.0852C34.1847 3.05501 34.2759 3.04679 34.367 3.03036H34.4333C34.4996 3.01392 34.5659 3.00571 34.6239 2.99749H34.6985C34.7648 2.98106 34.8311 2.97284 34.8891 2.95641H34.9223C34.9886 2.93997 35.0549 2.93176 35.1212 2.91533H35.1709C35.2124 2.89889 35.2621 2.89068 35.2952 2.88246H35.345C35.345 2.88246 35.4195 2.85781 35.461 2.84959H35.4941C35.5439 2.83316 35.5853 2.81673 35.6184 2.80851H35.6433C35.6433 2.80851 35.7013 2.78386 35.7262 2.77564H35.751C35.751 2.77564 35.8008 2.74278 35.8173 2.73456H35.8339C35.8339 2.73456 35.8754 2.70169 35.8836 2.69348C35.8836 2.69348 35.8836 2.67704 35.8919 2.67704C35.8919 2.67704 35.8919 2.65239 35.8919 2.64418V2.62774Z" fill="#C0C0C1"/>
<path d="M11.9164 1.60905C9.33065 1.22287 12.4053 0.746303 18.7702 0.532671C25.135 0.31904 32.3866 0.458722 34.9723 0.844902C37.5581 1.23108 34.4834 1.70765 28.1185 1.92128C21.7537 2.13491 14.5021 1.99523 11.9164 1.60905V1.60905Z" fill="#F2F2F2"/>
</svg>
