<svg width="45" height="41" viewBox="0 0 45 41" fill="none" xmlns="http://www.w3.org/2000/svg">
<path d="M24.5 17.8657C19.8134 17.8657 16 14.0346 16 9.32618C16 4.61775 19.8134 0.786621 24.5 0.786621C29.1866 0.786621 33 4.61775 33 9.32618C33 14.0346 29.1866 17.8657 24.5 17.8657ZM24.5 3.55534C21.3275 3.55534 18.7559 6.14699 18.7559 9.32618C18.7559 12.5054 21.3355 15.097 24.5 15.097C27.6645 15.097 30.2441 12.5054 30.2441 9.32618C30.2441 6.14699 27.6645 3.55534 24.5 3.55534Z" fill="#AAAAAB"/>
<path d="M25.5 17.8657C20.8134 17.8657 17 14.0346 17 9.32618C17 4.61775 20.8134 0.786621 25.5 0.786621C30.1866 0.786621 34 4.61775 34 9.32618C34 14.0346 30.1866 17.8657 25.5 17.8657ZM25.5 3.55534C22.3275 3.55534 19.7559 6.14699 19.7559 9.32618C19.7559 12.5054 22.3355 15.097 25.5 15.097C28.6645 15.097 31.2441 12.5054 31.2441 9.32618C31.2441 6.14699 28.6645 3.55534 25.5 3.55534Z" fill="#E3E2E3"/>
<path d="M16 13.8472L12.649 40.9728H3L6.34262 13.8472H16Z" fill="#E28F26"/>
<path d="M41.7033 13.8472L45 40.9728H12L15.305 13.8472H41.7033Z" fill="#FFC708"/>
<path d="M35 17.8657L36.75 36.9541H39L37.2574 17.8657H35Z" fill="#FFDC66"/>
<path d="M19.8992 17.8657L18 36.9541H37L35.0928 17.8657H19.8992Z" fill="#E7B221"/>
</svg>
