<svg width="85" height="85" viewBox="0 0 85 85" fill="none" xmlns="http://www.w3.org/2000/svg">
<path fill-rule="evenodd" clip-rule="evenodd" d="M42.5039 1C44.4369 1 46.0039 2.567 46.0039 4.5V80.3808C46.0039 82.3138 44.4369 83.8808 42.5039 83.8808C40.5709 83.8808 39.0039 82.3138 39.0039 80.3808V4.5C39.0039 2.567 40.5709 1 42.5039 1Z" fill="#FFCB00"/>
<path fill-rule="evenodd" clip-rule="evenodd" d="M12.8754 54.2432C14.1541 52.7937 16.3659 52.6552 17.8154 53.9339L44.8193 77.7556C46.2689 79.0344 46.4074 81.2461 45.1286 82.6957C43.8499 84.1453 41.6381 84.2837 40.1885 83.005L13.1847 59.1833C11.7351 57.9046 11.5966 55.6928 12.8754 54.2432Z" fill="#FFCB00"/>
<path fill-rule="evenodd" clip-rule="evenodd" d="M72.1247 54.2429C73.4036 55.6923 73.2654 57.904 71.816 59.183L44.8197 83.0047C43.3703 84.2836 41.1585 84.1454 39.8796 82.696C38.6006 81.2466 38.7388 79.0349 40.1882 77.7559L67.1845 53.9343C68.6339 52.6553 70.8457 52.7935 72.1247 54.2429Z" fill="#FFCB00"/>
</svg>
