<svg width="1200" height="105" viewBox="0 0 1200 105" fill="none" xmlns="http://www.w3.org/2000/svg">
<path d="M57.9219 92.2656H58.125C58.9531 92.2656 59.6458 92.1458 60.2031 91.9062C60.7604 91.6615 61.2057 91.3255 61.5391 90.8984C61.8776 90.4661 62.1198 89.9609 62.2656 89.3828C62.4115 88.8047 62.4844 88.1771 62.4844 87.5V85.9141C62.4844 85.3151 62.4193 84.7891 62.2891 84.3359C62.1589 83.8828 61.974 83.5052 61.7344 83.2031C61.4948 82.8958 61.2109 82.6641 60.8828 82.5078C60.5599 82.3516 60.2005 82.2734 59.8047 82.2734C59.4141 82.2734 59.0599 82.3568 58.7422 82.5234C58.4297 82.6901 58.1641 82.9219 57.9453 83.2188C57.7318 83.5104 57.5651 83.8464 57.4453 84.2266C57.3307 84.6016 57.2734 85 57.2734 85.4219C57.2734 85.8073 57.3255 86.1823 57.4297 86.5469C57.5391 86.9062 57.6979 87.2318 57.9062 87.5234C58.1146 87.8099 58.3698 88.0391 58.6719 88.2109C58.9792 88.3776 59.3333 88.4609 59.7344 88.4609C60.1875 88.4609 60.5885 88.375 60.9375 88.2031C61.2917 88.0312 61.5911 87.8099 61.8359 87.5391C62.0859 87.263 62.276 86.9661 62.4062 86.6484C62.5417 86.3255 62.6146 86.013 62.625 85.7109L63.0938 85.7031C63.0938 86.1771 63.0052 86.6302 62.8281 87.0625C62.6562 87.4896 62.4115 87.8698 62.0938 88.2031C61.7812 88.5312 61.4141 88.7917 60.9922 88.9844C60.5703 89.1771 60.1146 89.2734 59.625 89.2734C59.0938 89.2734 58.6224 89.1693 58.2109 88.9609C57.8047 88.7474 57.4635 88.4609 57.1875 88.1016C56.9167 87.737 56.7109 87.3281 56.5703 86.875C56.4297 86.4219 56.3594 85.9505 56.3594 85.4609C56.3594 84.9141 56.4349 84.401 56.5859 83.9219C56.7422 83.4375 56.9688 83.013 57.2656 82.6484C57.5625 82.2786 57.9219 81.9896 58.3438 81.7812C58.7708 81.5729 59.2526 81.4688 59.7891 81.4688C60.3984 81.4688 60.9297 81.5807 61.3828 81.8047C61.8359 82.0234 62.2109 82.3359 62.5078 82.7422C62.8099 83.1484 63.0339 83.6276 63.1797 84.1797C63.3307 84.7318 63.4062 85.3411 63.4062 86.0078V86.9062C63.4062 87.5781 63.3542 88.2214 63.25 88.8359C63.1458 89.4505 62.9714 90.0182 62.7266 90.5391C62.487 91.0547 62.1641 91.5026 61.7578 91.8828C61.3516 92.263 60.849 92.5599 60.25 92.7734C59.651 92.9818 58.9427 93.0859 58.125 93.0859H57.9141L57.9219 92.2656Z" fill="black"/>
<path d="M183.633 89.9844C183.633 90.6719 183.471 91.2526 183.148 91.7266C182.831 92.2005 182.398 92.5573 181.852 92.7969C181.305 93.0365 180.693 93.1562 180.016 93.1562C179.333 93.1562 178.719 93.0365 178.172 92.7969C177.625 92.5573 177.19 92.2005 176.867 91.7266C176.549 91.2526 176.391 90.6719 176.391 89.9844C176.391 89.5312 176.479 89.1198 176.656 88.75C176.839 88.375 177.091 88.0521 177.414 87.7812C177.742 87.5052 178.125 87.2917 178.562 87.1406C179 86.9896 179.479 86.9141 180 86.9141C180.688 86.9141 181.305 87.0469 181.852 87.3125C182.398 87.5729 182.831 87.9323 183.148 88.3906C183.471 88.849 183.633 89.3802 183.633 89.9844ZM182.695 89.9844C182.695 89.5 182.578 89.0755 182.344 88.7109C182.109 88.3464 181.789 88.0651 181.383 87.8672C180.977 87.6641 180.516 87.5625 180 87.5625C179.479 87.5625 179.018 87.6641 178.617 87.8672C178.216 88.0651 177.901 88.3464 177.672 88.7109C177.443 89.0755 177.328 89.5 177.328 89.9844C177.328 90.4896 177.44 90.9193 177.664 91.2734C177.893 91.6276 178.211 91.8958 178.617 92.0781C179.023 92.2604 179.49 92.3516 180.016 92.3516C180.542 92.3516 181.005 92.2604 181.406 92.0781C181.807 91.8958 182.122 91.6276 182.352 91.2734C182.581 90.9193 182.695 90.4896 182.695 89.9844ZM183.336 84.5469C183.336 85.1042 183.188 85.6016 182.891 86.0391C182.599 86.4714 182.203 86.8125 181.703 87.0625C181.203 87.3073 180.638 87.4297 180.008 87.4297C179.372 87.4297 178.802 87.3073 178.297 87.0625C177.797 86.8125 177.401 86.4714 177.109 86.0391C176.823 85.6016 176.68 85.1042 176.68 84.5469C176.68 83.8854 176.823 83.3281 177.109 82.875C177.401 82.4167 177.797 82.0677 178.297 81.8281C178.797 81.5885 179.365 81.4688 180 81.4688C180.63 81.4688 181.195 81.5885 181.695 81.8281C182.201 82.0677 182.599 82.4167 182.891 82.875C183.188 83.3281 183.336 83.8854 183.336 84.5469ZM182.406 84.5391C182.406 84.0964 182.299 83.7057 182.086 83.3672C181.878 83.0286 181.591 82.763 181.227 82.5703C180.867 82.3724 180.458 82.2734 180 82.2734C179.536 82.2734 179.125 82.3646 178.766 82.5469C178.411 82.7292 178.13 82.9896 177.922 83.3281C177.719 83.6667 177.617 84.0703 177.617 84.5391C177.617 84.9974 177.719 85.3932 177.922 85.7266C178.13 86.0547 178.414 86.3099 178.773 86.4922C179.133 86.6745 179.544 86.7656 180.008 86.7656C180.471 86.7656 180.883 86.6745 181.242 86.4922C181.602 86.3099 181.885 86.0547 182.094 85.7266C182.302 85.3932 182.406 84.9974 182.406 84.5391Z" fill="black"/>
<path d="M303.641 81.625V82.1641L298.781 93H297.812L302.641 82.4297H296.164V81.625H303.641Z" fill="black"/>
<path d="M422.016 81.5391H422.148V82.3594H422.016C421.297 82.3594 420.656 82.4766 420.094 82.7109C419.536 82.9453 419.065 83.2839 418.68 83.7266C418.299 84.1641 418.01 84.6953 417.812 85.3203C417.615 85.9453 417.516 86.6458 417.516 87.4219V88.9922C417.516 89.5182 417.586 89.9896 417.727 90.4062C417.867 90.8177 418.062 91.1693 418.312 91.4609C418.562 91.7526 418.854 91.974 419.188 92.125C419.521 92.276 419.88 92.3516 420.266 92.3516C420.646 92.3516 420.987 92.2734 421.289 92.1172C421.591 91.9609 421.846 91.7422 422.055 91.4609C422.268 91.1797 422.43 90.8568 422.539 90.4922C422.654 90.1224 422.711 89.7266 422.711 89.3047C422.711 88.9036 422.659 88.526 422.555 88.1719C422.456 87.8125 422.302 87.4948 422.094 87.2188C421.885 86.9427 421.625 86.7266 421.312 86.5703C421 86.4141 420.633 86.3359 420.211 86.3359C419.732 86.3359 419.284 86.4453 418.867 86.6641C418.451 86.8828 418.109 87.1745 417.844 87.5391C417.583 87.9036 417.445 88.3021 417.43 88.7344L416.891 88.7266C416.927 88.237 417.039 87.7969 417.227 87.4062C417.414 87.0104 417.661 86.6745 417.969 86.3984C418.281 86.1172 418.638 85.9036 419.039 85.7578C419.445 85.6068 419.883 85.5312 420.352 85.5312C420.898 85.5312 421.375 85.6302 421.781 85.8281C422.193 86.026 422.534 86.2995 422.805 86.6484C423.081 86.9922 423.286 87.3906 423.422 87.8438C423.562 88.2917 423.633 88.7656 423.633 89.2656C423.633 89.8125 423.555 90.3229 423.398 90.7969C423.247 91.2656 423.023 91.6771 422.727 92.0312C422.435 92.3854 422.081 92.6615 421.664 92.8594C421.253 93.0573 420.786 93.1562 420.266 93.1562C419.693 93.1562 419.18 93.0469 418.727 92.8281C418.273 92.6094 417.885 92.3073 417.562 91.9219C417.245 91.5365 417 91.0938 416.828 90.5938C416.661 90.0885 416.578 89.5495 416.578 88.9766V87.9766C416.578 87.0078 416.69 86.1302 416.914 85.3438C417.138 84.5521 417.474 83.8724 417.922 83.3047C418.375 82.737 418.94 82.3021 419.617 82C420.299 81.6927 421.099 81.5391 422.016 81.5391Z" fill="black"/>
<path d="M538.008 87.375L537.273 87.1641L537.828 81.625H543.516V82.5H538.625L538.227 86.3281C538.424 86.1875 538.711 86.0495 539.086 85.9141C539.466 85.7734 539.893 85.7031 540.367 85.7031C540.872 85.7031 541.331 85.7891 541.742 85.9609C542.159 86.1276 542.516 86.3724 542.812 86.6953C543.109 87.013 543.339 87.3984 543.5 87.8516C543.661 88.2995 543.742 88.8073 543.742 89.375C543.742 89.9219 543.674 90.4245 543.539 90.8828C543.404 91.3411 543.198 91.7422 542.922 92.0859C542.646 92.4245 542.294 92.6875 541.867 92.875C541.44 93.0625 540.932 93.1562 540.344 93.1562C539.891 93.1562 539.464 93.0938 539.062 92.9688C538.667 92.8385 538.312 92.6432 538 92.3828C537.688 92.1224 537.432 91.7943 537.234 91.3984C537.042 91.0026 536.922 90.5391 536.875 90.0078H537.773C537.836 90.5182 537.974 90.9479 538.188 91.2969C538.401 91.6458 538.688 91.9089 539.047 92.0859C539.411 92.263 539.844 92.3516 540.344 92.3516C540.75 92.3516 541.104 92.2865 541.406 92.1562C541.714 92.026 541.969 91.8359 542.172 91.5859C542.38 91.3307 542.536 91.0208 542.641 90.6562C542.75 90.2865 542.805 89.8646 542.805 89.3906C542.805 88.9844 542.747 88.612 542.633 88.2734C542.518 87.9297 542.349 87.6302 542.125 87.375C541.906 87.1146 541.635 86.9141 541.312 86.7734C540.99 86.6328 540.62 86.5625 540.203 86.5625C539.661 86.5625 539.229 86.6354 538.906 86.7812C538.589 86.9271 538.289 87.125 538.008 87.375Z" fill="black"/>
<path d="M664.148 89.3281V90.125H656.094V89.5859L661.352 81.625H662.133L661.023 83.5547L657.234 89.3281H664.148ZM662.375 81.625V93H661.445V81.625H662.375Z" fill="black"/>
<path d="M778.719 86.7969H779.672C780.255 86.7969 780.742 86.6979 781.133 86.5C781.529 86.2969 781.826 86.0286 782.023 85.6953C782.227 85.362 782.328 84.9922 782.328 84.5859C782.328 84.1276 782.242 83.7266 782.07 83.3828C781.898 83.0339 781.635 82.763 781.281 82.5703C780.932 82.3724 780.484 82.2734 779.938 82.2734C779.458 82.2734 779.031 82.3672 778.656 82.5547C778.281 82.7422 777.984 83.0104 777.766 83.3594C777.547 83.7083 777.438 84.125 777.438 84.6094H776.508C776.508 83.9896 776.656 83.4453 776.953 82.9766C777.25 82.5026 777.659 82.1328 778.18 81.8672C778.701 81.6016 779.286 81.4688 779.938 81.4688C780.609 81.4688 781.193 81.5911 781.688 81.8359C782.188 82.0807 782.573 82.4375 782.844 82.9062C783.12 83.375 783.258 83.9453 783.258 84.6172C783.258 84.9609 783.182 85.2995 783.031 85.6328C782.885 85.9661 782.667 86.2682 782.375 86.5391C782.083 86.8047 781.721 87.0182 781.289 87.1797C780.857 87.3411 780.354 87.4219 779.781 87.4219H778.719V86.7969ZM778.719 87.6016V86.9844H779.781C780.432 86.9844 780.99 87.0599 781.453 87.2109C781.917 87.3568 782.297 87.5651 782.594 87.8359C782.896 88.1016 783.117 88.4115 783.258 88.7656C783.398 89.1198 783.469 89.5 783.469 89.9062C783.469 90.4271 783.383 90.888 783.211 91.2891C783.039 91.6901 782.794 92.0312 782.477 92.3125C782.164 92.5885 781.794 92.7995 781.367 92.9453C780.945 93.0859 780.482 93.1562 779.977 93.1562C779.518 93.1562 779.07 93.0885 778.633 92.9531C778.201 92.8177 777.81 92.6172 777.461 92.3516C777.117 92.0807 776.844 91.7422 776.641 91.3359C776.438 90.9245 776.336 90.4505 776.336 89.9141H777.266C777.266 90.3932 777.38 90.8177 777.609 91.1875C777.839 91.5521 778.156 91.8385 778.562 92.0469C778.974 92.25 779.445 92.3516 779.977 92.3516C780.513 92.3516 780.971 92.2604 781.352 92.0781C781.737 91.8906 782.031 91.6172 782.234 91.2578C782.438 90.8984 782.539 90.4583 782.539 89.9375C782.539 89.3906 782.417 88.9453 782.172 88.6016C781.932 88.2578 781.596 88.0052 781.164 87.8438C780.737 87.6823 780.24 87.6016 779.672 87.6016H778.719Z" fill="black"/>
<path d="M903.758 92.1953V93H896.641V92.2734L900.367 88.0469C900.831 87.5208 901.201 87.0599 901.477 86.6641C901.753 86.263 901.951 85.8984 902.07 85.5703C902.195 85.237 902.258 84.9141 902.258 84.6016C902.258 84.1432 902.167 83.7396 901.984 83.3906C901.807 83.0417 901.542 82.7682 901.188 82.5703C900.833 82.3724 900.396 82.2734 899.875 82.2734C899.354 82.2734 898.901 82.3854 898.516 82.6094C898.13 82.8333 897.833 83.1458 897.625 83.5469C897.422 83.9427 897.32 84.3932 897.32 84.8984H896.391C896.391 84.2734 896.529 83.7005 896.805 83.1797C897.086 82.6589 897.487 82.2448 898.008 81.9375C898.529 81.625 899.151 81.4688 899.875 81.4688C900.562 81.4688 901.154 81.5911 901.648 81.8359C902.143 82.0755 902.523 82.4219 902.789 82.875C903.06 83.3281 903.195 83.875 903.195 84.5156C903.195 84.8594 903.133 85.2057 903.008 85.5547C902.888 85.9036 902.721 86.2526 902.508 86.6016C902.299 86.9453 902.06 87.2865 901.789 87.625C901.523 87.9635 901.245 88.2969 900.953 88.625L897.781 92.1953H903.758Z" fill="black"/>
<path d="M1020.98 81.5781V93H1020.05V82.7578L1016.96 83.9062V83.0234L1020.83 81.5781H1020.98Z" fill="black"/>
<path d="M1143.49 86.3359V88.25C1143.49 89.0833 1143.41 89.8099 1143.26 90.4297C1143.1 91.0443 1142.87 91.5547 1142.57 91.9609C1142.27 92.362 1141.91 92.6615 1141.48 92.8594C1141.05 93.0573 1140.56 93.1562 1140.01 93.1562C1139.57 93.1562 1139.17 93.0938 1138.8 92.9688C1138.44 92.8438 1138.11 92.6536 1137.83 92.3984C1137.55 92.138 1137.31 91.8125 1137.11 91.4219C1136.91 91.0312 1136.76 90.5729 1136.66 90.0469C1136.55 89.5156 1136.5 88.9167 1136.5 88.25V86.3359C1136.5 85.4974 1136.58 84.7734 1136.73 84.1641C1136.9 83.5547 1137.12 83.0495 1137.42 82.6484C1137.72 82.2474 1138.09 81.9505 1138.52 81.7578C1138.96 81.5599 1139.45 81.4609 1139.99 81.4609C1140.43 81.4609 1140.83 81.526 1141.2 81.6562C1141.57 81.7812 1141.89 81.9688 1142.17 82.2188C1142.46 82.4688 1142.7 82.7891 1142.89 83.1797C1143.09 83.5651 1143.24 84.0208 1143.34 84.5469C1143.44 85.0729 1143.49 85.6693 1143.49 86.3359ZM1142.56 88.3594V86.2188C1142.56 85.7031 1142.53 85.2344 1142.45 84.8125C1142.39 84.3906 1142.28 84.0208 1142.15 83.7031C1142.01 83.3854 1141.84 83.1198 1141.63 82.9062C1141.43 82.6927 1141.19 82.5339 1140.91 82.4297C1140.64 82.3203 1140.34 82.2656 1139.99 82.2656C1139.57 82.2656 1139.2 82.3516 1138.88 82.5234C1138.56 82.6901 1138.29 82.9401 1138.08 83.2734C1137.86 83.6016 1137.7 84.013 1137.59 84.5078C1137.49 85.0026 1137.44 85.5729 1137.44 86.2188V88.3594C1137.44 88.8698 1137.47 89.3359 1137.54 89.7578C1137.61 90.1745 1137.71 90.5443 1137.85 90.8672C1137.99 91.1901 1138.16 91.4635 1138.37 91.6875C1138.58 91.9062 1138.82 92.0729 1139.09 92.1875C1139.36 92.2969 1139.67 92.3516 1140.01 92.3516C1140.44 92.3516 1140.82 92.2656 1141.13 92.0938C1141.45 91.9167 1141.72 91.6589 1141.93 91.3203C1142.14 90.9766 1142.3 90.5573 1142.41 90.0625C1142.51 89.5625 1142.56 88.9948 1142.56 88.3594Z" fill="black"/>
<path d="M0 55L1200 54.9999" stroke="#FFCB00" stroke-miterlimit="10"/>
<path d="M60 66.51V55" stroke="#FFCB00" stroke-width="0.8" stroke-miterlimit="10"/>
<path d="M180 66.51V55" stroke="#FFCB00" stroke-width="0.8" stroke-miterlimit="10"/>
<path d="M300 66.51V55" stroke="#FFCB00" stroke-width="0.8" stroke-miterlimit="10"/>
<path d="M420 66.51V55" stroke="#FFCB00" stroke-width="0.8" stroke-miterlimit="10"/>
<path d="M540 66.51V55" stroke="#FFCB00" stroke-width="0.8" stroke-miterlimit="10"/>
<path d="M660 66.51V55" stroke="#FFCB00" stroke-width="0.8" stroke-miterlimit="10"/>
<path d="M780 66.51V55" stroke="#FFCB00" stroke-width="0.8" stroke-miterlimit="10"/>
<path d="M900 66.51V55" stroke="#FFCB00" stroke-width="0.8" stroke-miterlimit="10"/>
<path d="M1020 66.51V55" stroke="#FFCB00" stroke-width="0.8" stroke-miterlimit="10"/>
<path d="M1140 66.51V55" stroke="#FFCB00" stroke-width="0.8" stroke-miterlimit="10"/>
<path d="M120 60.75V55" stroke="#FFCB00" stroke-width="0.56" stroke-miterlimit="10"/>
<path d="M240 60.75V55" stroke="#FFCB00" stroke-width="0.56" stroke-miterlimit="10"/>
<path d="M360 60.75V55" stroke="#FFCB00" stroke-width="0.56" stroke-miterlimit="10"/>
<path d="M480 60.75V55" stroke="#FFCB00" stroke-width="0.56" stroke-miterlimit="10"/>
<path d="M600 60.75V55" stroke="#FFCB00" stroke-width="0.56" stroke-miterlimit="10"/>
<path d="M720 60.75V55" stroke="#FFCB00" stroke-width="0.56" stroke-miterlimit="10"/>
<path d="M840 60.75V55" stroke="#FFCB00" stroke-width="0.56" stroke-miterlimit="10"/>
<path d="M960 60.75V55" stroke="#FFCB00" stroke-width="0.56" stroke-miterlimit="10"/>
<path d="M1080 60.75V55" stroke="#FFCB00" stroke-width="0.56" stroke-miterlimit="10"/>
<path d="M1145.9 33.7188L1149.26 26.5469H1150.19L1146.23 35H1145.57L1141.62 26.5469H1142.55L1145.9 33.7188ZM1142.26 26.5469V35H1141.33V26.5469H1142.26ZM1149.48 35V26.5469H1150.41V35H1149.48ZM1156.36 35.1562C1155.8 35.1562 1155.3 35.0547 1154.83 34.8516C1154.37 34.6484 1153.97 34.362 1153.63 33.9922C1153.29 33.6224 1153.03 33.1849 1152.84 32.6797C1152.66 32.1693 1152.57 31.612 1152.57 31.0078V30.6719C1152.57 30.0208 1152.66 29.4323 1152.86 28.9062C1153.05 28.3802 1153.31 27.9297 1153.65 27.5547C1153.99 27.1797 1154.38 26.8932 1154.81 26.6953C1155.25 26.4922 1155.7 26.3906 1156.18 26.3906C1156.72 26.3906 1157.2 26.487 1157.61 26.6797C1158.03 26.8672 1158.38 27.1354 1158.66 27.4844C1158.95 27.8281 1159.16 28.237 1159.31 28.7109C1159.45 29.1797 1159.53 29.6979 1159.53 30.2656V30.8359H1153.13V30.0391H1158.6V29.9297C1158.59 29.4557 1158.49 29.013 1158.31 28.6016C1158.13 28.1849 1157.87 27.8464 1157.51 27.5859C1157.16 27.3255 1156.71 27.1953 1156.18 27.1953C1155.79 27.1953 1155.42 27.2786 1155.09 27.4453C1154.76 27.612 1154.48 27.8516 1154.24 28.1641C1154 28.4714 1153.82 28.8385 1153.69 29.2656C1153.57 29.6875 1153.5 30.1562 1153.5 30.6719V31.0078C1153.5 31.4766 1153.57 31.9141 1153.71 32.3203C1153.85 32.7214 1154.05 33.0755 1154.3 33.3828C1154.56 33.6901 1154.87 33.9297 1155.22 34.1016C1155.58 34.2734 1155.97 34.3594 1156.39 34.3594C1156.89 34.3594 1157.34 34.2682 1157.72 34.0859C1158.11 33.8984 1158.45 33.6042 1158.76 33.2031L1159.35 33.6562C1159.17 33.9271 1158.94 34.1771 1158.66 34.4062C1158.39 34.6354 1158.06 34.8177 1157.68 34.9531C1157.3 35.0885 1156.86 35.1562 1156.36 35.1562ZM1164.42 26.5469V35H1163.49V26.5469H1164.42ZM1167.5 26.5469V27.3438H1160.52V26.5469H1167.5ZM1170.13 28.1719V38.25H1169.19V26.5469H1170.07L1170.13 28.1719ZM1176 30.6953V30.8594C1176 31.4896 1175.93 32.0677 1175.78 32.5938C1175.64 33.1198 1175.43 33.5755 1175.15 33.9609C1174.88 34.3411 1174.55 34.6354 1174.14 34.8438C1173.74 35.0521 1173.29 35.1562 1172.78 35.1562C1172.27 35.1562 1171.82 35.0781 1171.43 34.9219C1171.03 34.7656 1170.69 34.5443 1170.4 34.2578C1170.12 33.9661 1169.89 33.6276 1169.72 33.2422C1169.56 32.8516 1169.44 32.4245 1169.37 31.9609V29.7969C1169.45 29.2865 1169.58 28.8229 1169.75 28.4062C1169.93 27.9896 1170.16 27.6302 1170.43 27.3281C1170.71 27.026 1171.05 26.7943 1171.43 26.6328C1171.82 26.4714 1172.26 26.3906 1172.75 26.3906C1173.27 26.3906 1173.73 26.4922 1174.13 26.6953C1174.53 26.8932 1174.88 27.1823 1175.15 27.5625C1175.43 27.9375 1175.64 28.3906 1175.78 28.9219C1175.93 29.4479 1176 30.0391 1176 30.6953ZM1175.07 30.8594V30.6953C1175.07 30.2005 1175.01 29.7422 1174.91 29.3203C1174.81 28.8984 1174.66 28.5312 1174.45 28.2188C1174.25 27.901 1173.99 27.6536 1173.67 27.4766C1173.35 27.2995 1172.98 27.2109 1172.55 27.2109C1172.1 27.2109 1171.72 27.2865 1171.4 27.4375C1171.09 27.5833 1170.83 27.7786 1170.62 28.0234C1170.41 28.263 1170.25 28.526 1170.13 28.8125C1170.01 29.099 1169.92 29.3802 1169.86 29.6562V32.1484C1169.96 32.5443 1170.12 32.9115 1170.34 33.25C1170.56 33.5833 1170.85 33.8516 1171.21 34.0547C1171.58 34.2526 1172.03 34.3516 1172.57 34.3516C1172.99 34.3516 1173.36 34.263 1173.68 34.0859C1173.99 33.9089 1174.25 33.6615 1174.45 33.3438C1174.66 33.026 1174.81 32.6562 1174.91 32.2344C1175.01 31.8125 1175.07 31.3542 1175.07 30.8594Z" fill="black"/>
</svg>
