<svg width="1040" height="534" viewBox="0 0 1040 534" fill="none" xmlns="http://www.w3.org/2000/svg">
<path d="M603.881 242.621H481.819V262.358H603.881V242.621Z" fill="#C0C0C0"/>
<path d="M603.881 262.356C609.303 262.356 613.699 257.936 613.699 252.485C613.699 247.033 609.303 242.613 603.881 242.613C598.458 242.613 594.062 247.033 594.062 252.485C594.062 257.936 598.458 262.356 603.881 262.356Z" fill="#C0C0C0"/>
<path d="M603.881 257.329C606.541 257.329 608.697 255.161 608.697 252.487C608.697 249.813 606.541 247.645 603.881 247.645C601.22 247.645 599.064 249.813 599.064 252.487C599.064 255.161 601.22 257.329 603.881 257.329Z" fill="#C0C0C0"/>
<path d="M409.358 23.9298H135.312V56.5552H409.358V23.9298Z" fill="#C0C0C0"/>
<path d="M403.153 15.4746H378.312V65.0173H403.153V15.4746Z" fill="#C0C0C0"/>
<path d="M531.426 30.3772H409.364V50.114H531.426V30.3772Z" fill="#C0C0C0"/>
<path d="M414.871 237.108L524.434 31.2078C528.981 22.6644 539.738 19.7262 547.955 24.7833C554.047 28.5295 557.105 35.745 555.576 42.7628L529.711 161.336L442.068 256.568C436.645 262.462 427.837 263.688 421.02 259.495L420.902 259.422C413.331 254.766 410.684 244.974 414.871 237.108Z" fill="#C0C0C0"/>
<path d="M347.259 90.3926L505.853 125.662C515.88 127.894 523.079 136.743 523.271 147.066C523.456 157.406 516.565 166.52 506.606 169.103L378.317 202.372L347.265 90.3926H347.259Z" fill="#C0C0C0"/>
<path d="M356.718 208.671V238.76C356.718 241.314 358.59 243.483 361.102 243.845L367.149 244.715C383.24 247.026 397.982 255.033 408.717 267.3C430.62 292.32 467.635 334.387 478.117 344.919C493.292 360.175 530.757 390.744 555.064 400.141C566.676 404.633 580.3 408.69 591.36 411.707C602.966 414.871 614.921 407.989 618.051 396.315C620.805 386.054 615.809 375.302 606.226 370.815C589.466 362.967 564.001 348.858 548.382 329.782C523.54 299.439 485.08 213.774 465.848 183.968C446.615 154.162 413.961 102.466 286.757 60.9811C185.068 27.819 74.944 -10.2252 30.3581 -25.7299C18.8814 -29.7247 6.30315 -24.0009 1.70574 -12.7001C-2.7624 -1.7157 1.81815 10.8847 12.2832 16.3825L346.826 192.246C352.908 195.444 356.724 201.772 356.724 208.677L356.718 208.671Z" fill="#C0C0C0"/>
<path d="M548.258 9.56445H533.567V30.3749H548.258V9.56445Z" fill="#C0C0C0"/>
<path d="M555.964 9.56445H315.477V15.7403H555.964V9.56445Z" fill="#C0C0C0"/>
<path d="M538.777 48.2313C543.166 48.2313 546.724 44.6542 546.724 40.2416C546.724 35.829 543.166 32.252 538.777 32.252C534.388 32.252 530.83 35.829 530.83 40.2416C530.83 44.6542 534.388 48.2313 538.777 48.2313Z" fill="#C0C0C0"/>
<path d="M595.66 401.558C601.247 401.558 605.777 397.005 605.777 391.388C605.777 385.77 601.247 381.217 595.66 381.217C590.073 381.217 585.543 385.77 585.543 391.388C585.543 397.005 590.073 401.558 595.66 401.558Z" fill="#C0C0C0"/>
<path d="M500.705 156.552C506.292 156.552 510.821 151.999 510.821 146.382C510.821 140.765 506.292 136.211 500.705 136.211C495.118 136.211 490.588 140.765 490.588 146.382C490.588 151.999 495.118 156.552 500.705 156.552Z" fill="#C0C0C0"/>
<path d="M659.529 99.0382L680.374 174.744C682.654 183.036 689.42 189.299 697.819 190.896L784.448 207.37C815.85 213.344 836.855 243.289 832.049 275.094C829.783 290.096 827.001 304.567 823.79 313.575C818.833 327.489 812.833 339.672 808.37 347.921C804.901 354.329 806.951 362.34 813.048 366.289C819.117 370.216 827.15 368.788 831.533 363.015C841.939 349.306 859.534 323.519 866.174 298.113C875.861 261.06 887.473 246.061 910.985 246.466C934.496 246.871 958.138 274.599 954.339 309.067C950.538 343.529 922.841 405.081 905.135 422.667C887.424 440.254 877.981 444.797 882.949 454.766C889.658 468.225 920.941 452.677 931.115 443.575C941.295 434.471 987.855 404.941 1004.3 344.607C1004.9 342.402 1005.52 339.923 1006.14 337.227C1019.69 278.305 990.661 217.793 936.46 191.713C925.421 186.403 914.382 181.144 903.999 176.298C866.03 158.58 739.865 104.789 681.196 79.8627C668.855 74.6238 655.961 86.0318 659.537 99.0248L659.529 99.0382Z" fill="#F0A400"/>
<path d="M1024.45 532.991H700.143C645.351 532.991 604.361 482.398 615.427 428.418L665.594 183.585C670.627 159.013 699.21 147.865 719.392 162.609L763.208 194.609C782.513 208.707 790.992 233.447 784.428 256.518L771.385 302.352C754.125 363.008 786.473 426.749 845.432 448.269L975.494 495.738C995.168 502.919 1012.23 515.904 1024.44 533.002L1024.45 532.991Z" fill="#FFCB00"/>
<path d="M656.232 229.281L603.999 233.119C592.855 233.119 583.822 242.205 583.822 253.414C583.822 264.624 592.855 273.71 603.999 273.71L646.491 276.834" fill="#F0A400"/>
<path d="M626.213 375.783L604.713 369.473C593.055 365.101 580.085 371.063 575.739 382.79C571.393 394.516 577.32 407.563 588.978 411.935L616.226 424.493" fill="#F0A400"/>
</svg>
