<svg width="588" height="731" viewBox="0 0 588 731" fill="none" xmlns="http://www.w3.org/2000/svg">
<path d="M129.271 329.127H108.692V414.478H129.271V329.127Z" fill="#FFDA4A"/>
<path d="M151.256 329.127H132.772V380.425H151.256V329.127Z" fill="#FFDA4A"/>
<path d="M129.271 450.683H108.692V535.659H129.271V450.683Z" fill="#FFDA4A"/>
<path d="M151.256 484.361H132.772V535.66H151.256V484.361Z" fill="#FFDA4A"/>
<path d="M108.692 314.258H96.6211V555.732H108.692V314.258Z" fill="#FFCB00"/>
<path d="M125.018 386.966C117.853 386.966 112.043 392.76 112.043 399.906C112.043 405.888 116.121 410.919 121.667 412.396L164.607 425.825V386.978H125.018V386.966Z" fill="#F0A400"/>
<path d="M125.018 407.641C129.301 407.641 132.773 404.179 132.773 399.907C132.773 395.636 129.301 392.173 125.018 392.173C120.735 392.173 117.263 395.636 117.263 399.907C117.263 404.179 120.735 407.641 125.018 407.641Z" fill="white"/>
<path d="M121.366 453.607C121.228 453.645 121.09 453.695 120.952 453.732L120.638 453.832C115.632 455.634 112.043 460.403 112.043 466.009C112.043 473.155 117.853 478.95 125.018 478.95H164.595V440.104L121.354 453.607H121.366Z" fill="#F0A400"/>
<path d="M125.018 473.745C129.301 473.745 132.773 470.282 132.773 466.011C132.773 461.739 129.301 458.276 125.018 458.276C120.735 458.276 117.263 461.739 117.263 466.011C117.263 470.282 120.735 473.745 125.018 473.745Z" fill="white"/>
<path d="M578.849 427.242L348.527 426.767C318.436 426.704 289.977 413.075 271.117 389.685L214.989 320.077C212.027 316.398 207.547 314.258 202.817 314.258H160.216C155.272 314.258 151.256 318.25 151.256 323.193V417.193C151.256 419.721 152.749 422.011 155.058 423.05L159.35 424.977C162.135 426.228 163.93 428.994 163.93 432.048V438.581C163.93 440.283 163.378 441.922 162.336 443.274L152.561 456.089C151.708 457.203 151.244 458.579 151.244 459.981V546.797C151.244 551.728 155.259 555.732 160.203 555.732H578.836C583.78 555.732 587.796 551.74 587.796 546.797V436.178C587.796 431.247 583.793 427.255 578.861 427.242H578.849ZM553.815 491.331V513.47C553.815 522.38 545.897 529.213 537.051 527.924L331.097 497.926C323.493 496.812 323.493 485.862 331.097 484.761L537.051 454.762C545.885 453.473 553.815 460.306 553.815 469.217V491.356V491.331Z" fill="#FFCB00"/>
<rect x="71.5249" y="110.261" width="25.0964" height="438.021" fill="#AAAAAB"/>
<rect y="-110" width="71.5248" height="841" fill="#C0C0C0"/>
</svg>
