<svg width="326" height="615" viewBox="0 0 326 615" fill="none" xmlns="http://www.w3.org/2000/svg">
<path d="M272.057 95.7287L287.723 90.2607L311.076 157.171L295.409 162.639L272.057 95.7287Z" fill="#C0C0C0"/>
<path d="M214.629 179.615L230.294 174.156L54.4075 -224L9.15527e-05 -76.2386L214.629 179.615Z" fill="#C0C0C0"/>
<path d="M205.129 -14.7824L216.352 -22.4932L283.272 74.912L272.048 82.6227L205.129 -14.7824Z" fill="#C0C0C0"/>
<path d="M293.43 70.7143L298.898 86.3809L180.199 127.809L174.731 112.143L293.43 70.7143Z" fill="#C0C0C0"/>
<path d="M252.564 460.366H310.405V273.669L325.01 225.564H209.893L221.63 273.669V372.181L252.564 390.498V460.366Z" fill="#FFCB00"/>
<path d="M252.563 460.363H310.405L321.853 474.679V497.587H310.405H252.563H241.103V474.679L252.563 460.363Z" fill="#221815"/>
<path d="M270.024 591.799L281.484 614.995L292.932 591.799V497.589H270.024V591.799Z" fill="black"/>
<path d="M209.905 221.909H325.01V225.56H209.905V221.909Z" fill="#F0A400"/>
<path d="M209.905 218.26H325.01V221.911H209.905V218.26Z" fill="black"/>
<path d="M320.78 218.26C320.78 218.26 316.527 212.476 319.105 197.654C320.094 191.954 323.118 184.206 324.468 176.578C326.818 163.335 321.395 150.573 308.296 147.537C301.946 146.054 295.258 147.103 289.654 150.429L283.473 154.104C272.748 160.479 259.806 161.937 247.936 158.117L230.343 152.453C222.425 149.91 213.761 152.477 208.507 158.912C203.928 164.528 202.711 172.155 205.314 178.916L222.437 218.248H320.78V218.26Z" fill="#221815"/>
<path d="M260.926 225.564H265.505V273.103H260.926V225.564Z" fill="#FFDA4A"/>
<path d="M291.546 225.564H296.125V273.103H291.546V225.564Z" fill="#FFDA4A"/>
<path d="M230.307 225.564H234.886V273.103H230.307V225.564Z" fill="#FFDA4A"/>
<path d="M305.295 175.698C299.865 175.698 295.462 171.296 295.462 165.865C295.462 160.435 299.865 156.032 305.295 156.032C310.726 156.032 315.128 160.435 315.128 165.865C315.128 171.296 310.726 175.698 305.295 175.698Z" fill="#AAAAAB"/>
<path d="M221.787 179.613C216.356 179.613 211.953 175.211 211.953 169.78C211.953 164.35 216.356 159.947 221.787 159.947C227.217 159.947 231.62 164.35 231.62 169.78C231.62 175.211 227.217 179.613 221.787 179.613Z" fill="#AAAAAB"/>
</svg>
