<svg width="19" height="23" viewBox="0 0 19 23" fill="none" xmlns="http://www.w3.org/2000/svg">
<path d="M11.8878 0.392917C6.15187 0.392917 3.04816 2.81716 1.9874 8.32138L0.69091 15.0576C0.514116 15.9518 0.435547 16.7466 0.435547 17.4818C0.435547 21.2573 2.7535 22.9662 7.56621 22.9662C13.3022 22.9662 16.4059 20.5419 17.4666 15.0377L18.7631 8.30151C18.9399 7.40732 19.0185 6.61249 19.0185 5.87727C19.0185 2.08194 16.7005 0.373047 11.9075 0.373047L11.8878 0.392917ZM13.204 8.67906L12.045 14.6602C11.495 17.6011 10.336 18.0978 8.48947 18.0978C6.99654 18.0978 6.09293 17.7799 6.09293 16.1108C6.09293 15.7133 6.13222 15.2364 6.25008 14.6801L7.40906 8.69893C7.95908 5.75804 9.11807 5.26127 10.9646 5.26127C12.4575 5.26127 13.3611 5.59908 13.3611 7.24836C13.3611 7.64577 13.3218 8.12267 13.204 8.67906Z" fill="#1D1D1B"/>
</svg>
