<svg width="56" height="40" viewBox="0 0 56 40" fill="none" xmlns="http://www.w3.org/2000/svg">
<path d="M46.5966 26.7664C45.9091 25.9715 44.7305 25.8921 43.9644 26.5875C43.1786 27.283 43.1001 28.4753 43.7876 29.2502C44.4555 30.0053 44.8091 30.9989 44.8091 32.0123C44.8091 34.3372 42.9429 36.205 40.6642 36.205C38.3856 36.205 36.5194 34.3173 36.5194 32.0123C36.5194 30.3829 37.4623 28.8727 38.9356 28.1971C39.8785 27.7599 40.291 26.6472 39.8588 25.6934C39.4267 24.7396 38.3266 24.3223 37.3837 24.7594C34.5943 26.051 32.7871 28.9124 32.7871 32.0123C32.7871 36.4037 36.323 39.9805 40.6642 39.9805C45.0055 39.9805 48.5414 36.4037 48.5414 32.0123C48.5414 30.0848 47.8538 28.217 46.5966 26.7664V26.7664Z" fill="white"/>
<path d="M23.7305 24.0439C22.5912 24.0439 21.4716 24.2824 20.4306 24.7792C19.4878 25.2163 19.0753 26.3291 19.5074 27.2829C19.8217 27.9784 20.4895 28.3758 21.1966 28.3758C21.452 28.3758 21.727 28.3162 21.9823 28.1969C22.5323 27.9386 23.1019 27.8194 23.7108 27.8194C24.7322 27.8194 25.5768 26.965 25.5768 25.9317C25.5768 24.8984 24.7322 24.0439 23.7108 24.0439H23.7305Z" fill="white"/>
<path d="M31.3916 30.0848C31.1362 29.0714 30.1344 28.4554 29.1326 28.7137C28.1307 28.972 27.5218 29.9855 27.7771 30.9989C27.8557 31.3367 27.895 31.6745 27.895 32.0123C27.895 34.3372 26.0288 36.205 23.7502 36.205C21.4715 36.205 19.6054 34.3173 19.6054 32.0123C19.6054 30.3829 20.5483 28.8727 22.0215 28.1971C22.9644 27.7599 23.3769 26.6472 22.9448 25.6934C22.5126 24.7396 21.4126 24.3223 20.4697 24.7594C17.6803 26.051 15.873 28.9124 15.873 32.0123C15.873 36.4037 19.4089 39.9805 23.7502 39.9805C28.0914 39.9805 31.6273 36.4037 31.6273 32.0123C31.6273 31.3565 31.5487 30.7008 31.3916 30.0848V30.0848Z" fill="white"/>
<path d="M55.2798 29.5281L51.8813 12.4789C51.7045 11.6046 50.9384 10.9687 50.0544 10.9687H48.5614L44.0628 1.0929C43.7485 0.437159 43.1003 0 42.3538 0H22.4736C21.4521 0 20.6074 0.854446 20.6074 1.88773C20.6074 2.92101 21.4521 3.77546 22.4736 3.77546H41.1555L45.654 13.6314C45.9683 14.307 46.6166 14.7243 47.3434 14.7243H48.5025L51.2527 28.5941L46.0862 30.2037C45.104 30.5017 44.5539 31.5748 44.8486 32.5683C45.104 33.383 45.8308 33.8997 46.6362 33.8997C46.813 33.8997 47.0095 33.8798 47.1863 33.8202L53.9636 31.7139C54.8869 31.4357 55.4369 30.4819 55.2405 29.5281H55.2798Z" fill="white"/>
<path d="M26.4012 0.0596548C25.3994 -0.198666 24.3977 0.437201 24.1423 1.43074L17.8766 27.0641C17.6212 28.0775 18.2301 29.091 19.2319 29.3493C19.389 29.389 19.5265 29.4089 19.6836 29.4089C20.5282 29.4089 21.2746 28.8326 21.4907 27.9782L27.7565 2.3448C28.0118 1.33139 27.4029 0.317976 26.4012 0.0596548V0.0596548Z" fill="white"/>
<path d="M41.3901 14.8828L21.0785 20.6851C20.8035 20.7646 20.6267 21.0626 20.7053 21.3607C20.7642 21.5992 20.9803 21.7581 21.216 21.7581C21.2553 21.7581 21.3142 21.7581 21.3535 21.7581L41.6651 15.9558C41.9401 15.8764 42.1169 15.5783 42.0383 15.3001C41.9598 15.0219 41.6651 14.8431 41.3901 14.9226V14.8828Z" fill="white"/>
<path d="M18.5047 22.7128C18.4458 22.0371 18.0333 21.4212 17.4047 21.143C16.7761 20.8648 16.0689 20.9442 15.5189 21.3615L0.746821 32.5488C0.137866 33.0257 -0.137146 33.8206 0.0789345 34.5756C0.295015 35.3307 0.923614 35.8673 1.68972 35.9467L17.5422 37.4768C17.5422 37.4768 17.6601 37.4768 17.719 37.4768C18.2101 37.4768 18.6815 37.2781 19.0351 36.9403C19.428 36.5429 19.6244 35.9865 19.5851 35.4301L18.5047 22.6929V22.7128ZM6.85602 32.6482L15.0671 26.4087L15.676 33.5026L6.85602 32.6482V32.6482Z" fill="white"/>
<path d="M34.6327 30.124H29.7615C28.7401 30.124 27.8955 30.9785 27.8955 32.0118C27.8955 33.045 28.7401 33.8995 29.7615 33.8995H34.6327C35.6541 33.8995 36.4987 33.045 36.4987 32.0118C36.4987 30.9785 35.6541 30.124 34.6327 30.124Z" fill="white"/>
</svg>
