<svg width="20" height="23" viewBox="0 0 20 23" fill="none" xmlns="http://www.w3.org/2000/svg">
<path d="M19.2611 8.00349C19.3986 7.2484 19.4772 6.55292 19.4772 5.93693C19.4772 2.32043 17.1789 0.770508 13.9966 0.770508H5.47126C4.96052 0.770508 4.62657 1.0487 4.52835 1.56534L0.638898 21.7342C0.638898 21.7342 0.599609 21.933 0.599609 21.9926C0.599609 22.3701 0.835334 22.5887 1.2675 22.5887H5.1766C5.68733 22.5887 6.00164 22.3105 6.09985 21.7939L7.35705 15.2365H9.18392L11.2465 21.9131C11.4037 22.39 11.6197 22.5887 12.3269 22.5887H16.0985C16.57 22.5887 17.0021 22.3304 17.0021 21.8932C17.0021 21.7939 16.9628 21.6746 16.9432 21.5753L14.5466 14.5807C16.8057 13.6071 18.5933 11.5008 19.2415 8.00349H19.2611ZM13.7805 8.00349C13.4466 9.772 12.4448 10.3681 11.0304 10.3681H8.35888L9.26249 5.63886H11.934C13.1127 5.63886 13.8591 6.05615 13.8591 7.2484C13.8591 7.48685 13.8591 7.7253 13.7805 8.00349Z" fill="#1D1D1B"/>
</svg>
