<svg width="18" height="23" viewBox="0 0 18 23" fill="none" xmlns="http://www.w3.org/2000/svg">
<path d="M11.086 0.392917C5.84109 0.392917 2.95347 2.75755 2.12843 7.02978C2.01057 7.64577 1.95164 8.22203 1.95164 8.73867C1.95164 11.5405 3.69993 12.9115 7.27509 13.7263L8.88587 14.1038C10.4181 14.4615 10.9877 14.8788 10.9877 15.7332C10.9877 15.8922 10.9878 16.071 10.9288 16.2697C10.6735 17.5415 9.63233 18.2171 8.04119 18.2171C6.56791 18.2171 5.78216 17.7203 5.78216 16.4486V16.1902C5.78216 15.7133 5.56608 15.4749 5.09463 15.4749C4.99641 15.4749 4.78033 15.4749 4.56425 15.5146L1.08731 15.8723C0.615863 15.912 0.321207 16.1704 0.242632 16.5877C0.183701 16.9255 0.164062 17.3427 0.164062 17.7004C0.164062 21.0983 2.36416 22.9662 7.09829 22.9662C12.5003 22.9662 15.5844 20.3432 16.4094 16.1108C16.5273 15.455 16.5862 14.8788 16.5862 14.3422C16.5862 11.4212 14.6808 10.2489 11.4592 9.5335L9.80913 9.15596C8.06084 8.75854 7.53046 8.28164 7.53046 7.44707C7.53046 7.2881 7.56974 7.10926 7.58939 6.93042C7.78582 5.8574 8.61086 5.12218 10.0056 5.12218C11.4003 5.12218 12.0092 5.73817 12.0289 6.69197C12.0289 7.16887 12.2253 7.40733 12.7164 7.40733C12.8146 7.40733 13.0111 7.40732 13.1289 7.36758L16.6255 7.00991C17.0969 6.97017 17.372 6.69197 17.4702 6.29456C17.5487 5.97662 17.5684 5.59908 17.5684 5.30102C17.5684 1.88323 15.0933 0.373047 11.027 0.373047L11.086 0.392917Z" fill="#1D1D1B"/>
</svg>
