<svg width="20" height="23" viewBox="0 0 20 23" fill="none" xmlns="http://www.w3.org/2000/svg">
<path d="M11.9686 0.392578C6.23259 0.392578 3.14852 2.95592 2.12705 8.32104L0.830558 15.0573C0.653765 15.9316 0.575195 16.7264 0.575195 17.4616C0.575195 21.1973 2.83422 22.9857 7.62728 22.9857C13.3632 22.9857 16.4473 20.4224 17.4688 15.0573L18.2152 11.103C18.2152 11.103 18.2545 10.8645 18.2545 10.8049C18.2545 10.4274 18.0385 10.2286 17.6063 10.2286H10.9864C10.4756 10.2286 10.1417 10.5068 10.0435 11.0235L9.55237 13.5669C9.55237 13.5669 9.51309 13.8054 9.51309 13.865C9.51309 14.2426 9.72916 14.4413 10.1613 14.4413H12.0864L11.9882 14.9976C11.556 17.2629 10.5149 18.1174 8.55054 18.1174C7.07726 18.1174 6.23258 17.7199 6.23258 16.1104C6.23258 15.713 6.27187 15.256 6.38973 14.6996L7.54872 8.71846C8.0791 5.91667 9.19879 5.28081 11.0453 5.28081C12.5186 5.28081 13.3633 5.71796 13.3633 7.26789C13.3633 7.44673 13.3633 7.60569 13.3633 7.86401C13.3633 8.26143 13.54 8.49988 13.9722 8.49988C14.1883 8.49988 14.4633 8.49988 14.699 8.46014L18.0188 8.2813C18.5099 8.24156 18.8635 7.96337 18.9224 7.48647C19.001 6.94996 19.0206 6.41344 19.0206 5.95641C19.0206 2.0816 16.7027 0.392578 11.9686 0.392578Z" fill="#1D1D1B"/>
</svg>
