<svg width="22" height="23" viewBox="0 0 22 23" fill="none" xmlns="http://www.w3.org/2000/svg">
<path d="M20.8561 0.770847H17.0255C16.5148 0.770847 16.1809 1.04904 16.0827 1.56568L13.9808 12.4549L9.58058 1.36697C9.40378 0.909943 9.12877 0.750977 8.59839 0.750977H5.49468C4.98394 0.750977 4.65001 1.02917 4.55179 1.54581L0.662328 21.7147C0.662328 21.7147 0.623047 21.9134 0.623047 21.973C0.623047 22.3705 0.858764 22.5692 1.29093 22.5692H5.12146C5.6322 22.5692 5.9465 22.291 6.04472 21.7743L8.14659 10.8851L12.5468 21.973C12.7236 22.4301 12.9986 22.589 13.5486 22.589H16.6523C17.163 22.589 17.4774 22.3108 17.5756 21.7942L21.465 1.62529C21.465 1.62529 21.5043 1.40671 21.5043 1.3471C21.5043 0.969555 21.2882 0.770847 20.8561 0.770847Z" fill="#1D1D1B"/>
</svg>
