<svg width="19" height="23" viewBox="0 0 19 23" fill="none" xmlns="http://www.w3.org/2000/svg">
<path d="M17.7589 0.770847H5.20661C4.69587 0.770847 4.36192 1.04904 4.2637 1.56568L0.374257 21.7147C0.374257 21.7147 0.334961 21.9333 0.334961 21.9929C0.334961 22.3705 0.570693 22.589 1.00286 22.589H13.5552C14.0659 22.589 14.3802 22.3108 14.4784 21.7942L15.0874 18.595C15.0874 18.595 15.1267 18.3565 15.1267 18.2969C15.1267 17.9194 14.9106 17.7207 14.4784 17.7207H6.64059L7.42634 13.667H14.0463C14.557 13.667 14.891 13.3888 14.9892 12.8722L15.5981 9.67298C15.5981 9.67298 15.6374 9.43453 15.6374 9.37492C15.6374 8.99738 15.4213 8.79867 14.9892 8.79867H8.36925L8.9782 5.61933H16.816C17.3268 5.61933 17.6607 5.34114 17.7589 4.8245L18.3679 1.62529C18.3679 1.62529 18.4072 1.38684 18.4072 1.32723C18.4072 0.949685 18.1911 0.750977 17.7589 0.750977V0.770847Z" fill="#1D1D1B"/>
</svg>
