<svg width="21" height="23" viewBox="0 0 21 23" fill="none" xmlns="http://www.w3.org/2000/svg">
<path d="M19.3383 0.770847H15.4292C14.9185 0.770847 14.5845 1.04904 14.4863 1.56568L11.9523 14.74C11.4219 17.4822 10.3415 18.0982 8.51464 18.0982C7.04136 18.0982 6.21632 17.7008 6.21632 16.1111C6.21632 15.7137 6.25561 15.2766 6.37347 14.7202L8.90752 1.62529C8.90752 1.62529 8.9468 1.38684 8.9468 1.32723C8.9468 0.949685 8.73072 0.750977 8.29856 0.750977H4.38945C3.87872 0.750977 3.54478 1.02917 3.44656 1.54581L0.676794 15.972C0.558931 16.6476 0.5 17.2438 0.5 17.8002C0.5 21.516 3.23047 22.9666 7.61102 22.9666C12.6595 22.9666 16.2543 21.059 17.2364 15.972L19.9866 1.62529C19.9866 1.62529 20.0259 1.38684 20.0259 1.32723C20.0259 0.949685 19.8098 0.750977 19.3776 0.750977L19.3383 0.770847Z" fill="#1D1D1B"/>
</svg>
