<svg width="181" height="175" viewBox="0 0 181 175" fill="none" xmlns="http://www.w3.org/2000/svg">
<path d="M178 62.0421C175.146 50.5321 163.472 44.1902 152 47.0476C140.539 49.9051 134.146 61.5394 137 73.038C137.947 76.7984 138 80.102 138 84.0339C138 110.334 117.289 132.016 91 132.016C64.7107 132.016 43 110.334 43 84.0339C43 65.4374 54.1283 48.8451 71 41.0499C81.7303 36.1121 85.9542 22.8162 81 12.0607C76.0686 1.30509 63.7646 -2.88478 53 2.06438C20.9688 16.809 0 48.7496 0 84.0339C0 133.994 40.1154 175 90 175C139.885 175 181 133.983 181 84.0339C181 76.6044 179.792 69.1858 178 62.0421" fill="#FBE383"/>
</svg>
