<svg width="792" height="88" viewBox="0 0 792 88" fill="none" xmlns="http://www.w3.org/2000/svg">
<path d="M331 31L382.88 21.5287L386 0L334.193 10.1704L331 31Z" fill="#000F9F"/>
<path d="M43.3174 35L37.6927 75.7873H58L56.539 86H0L7.01259 35H43.3174Z" fill="#221815"/>
<path d="M366 35L359.039 86H323L329.961 35H366Z" fill="#221815"/>
<path d="M493.549 49.7184C493.914 47.2201 495.887 45.2127 501.588 45.2127H540.611L542 35H502.976C470.31 35 460.956 42.9313 458.764 58.4646C458.617 59.7138 458.471 60.7983 458.471 60.7983C455.913 79.1559 463.367 86 490.699 86H535.934C537.031 78.179 540.1 55.802 540.1 55.802H506.557C506.557 55.802 504.949 67.0987 503.999 74.4852H496.837C492.307 74.4852 490.48 72.4771 490.699 70.5762C490.699 70.5762 493.257 52.2168 493.549 49.7184Z" fill="#221815"/>
<path d="M274.012 64.1902L270.966 86H235L241.961 35H278L275.245 54.8575L274.012 64.1902Z" fill="#221815"/>
<path d="M299.48 57.8903L328 35H295.906L266 59.0319L287.226 86H321.362L299.48 57.8903Z" fill="#221815"/>
<path d="M107.728 34H100.418C75.8109 34 60.9017 42.4781 58.6581 58.8321L58.2238 62.1679C56.125 77.6468 68.8629 87 93.2532 87H100.563C125.966 87 140.224 77.4827 142.323 62.1679L142.757 58.8321C144.856 43.1344 133.349 34 107.728 34ZM105.919 71.4672C105.557 74.0379 102.155 76.1169 98.247 76.1169C94.3388 76.1169 91.5162 74.0379 91.878 71.4672L94.9178 49.3165C95.2796 46.7457 98.6813 44.6668 102.589 44.6668C106.498 44.6668 109.32 46.7457 108.958 49.3165L105.919 71.4672Z" fill="#221815"/>
<path d="M421.019 35H374.043L367 86H401.198L406.788 45.3524C409.91 45.3524 413.613 45.3524 413.686 45.3524C418.913 45.3524 420.293 47.3555 419.93 49.8485L414.92 86H449.263L453.837 52.7224C455.652 39.4984 442.147 35 421.019 35Z" fill="#221815"/>
<path d="M199.064 35H152.049L145 86H179.226L184.821 45.3524C187.946 45.3524 191.652 45.3524 191.652 45.3524C196.884 45.3524 198.265 47.3555 197.901 49.8485L192.887 86H227.259L231.837 52.7224C233.654 39.4984 220.138 35 198.991 35" fill="#221815"/>
<path d="M789.826 35H690.464V44.8832H726.049V76.1195H688V86H792V76.1195H751.922V44.8832H789.826V35Z" fill="#221815"/>
<path d="M606 79L667 65.8896V54L606 67.0561V79Z" fill="#221815"/>
<path d="M641.108 77.0147C639.576 77.0147 638.919 76.3642 638.919 75.1134V73.9158L617.536 78.3742V82.8884C617.536 85.1181 618.777 86.043 621.258 86.043H673V77.0147H641.108ZM657.31 41.1775V34H639.43V41.1775H612.209C612.282 38.8935 612.574 36.556 612.647 34H593.235V41.1775H567.109V52.054H592.213C591.629 54.3924 590.607 56.8404 589.148 59.6139C583.164 70.5447 562 80.7694 562 80.7694L579.588 88C599.146 78.9181 608.122 63.7462 610.895 52.054H617.464V62.6039L638.846 58.1455V52.1098H673V41.2333H657.31V41.1775Z" fill="#221815"/>
</svg>
