<svg width="1200" height="964" viewBox="0 0 1200 964" fill="none" xmlns="http://www.w3.org/2000/svg">
<path d="M1084.18 343.508C1068.36 280.224 1004.12 241.733 940.724 257.405C877.353 273.196 838.75 337.377 854.503 400.722C859.744 421.477 862.349 442.981 862.349 464.664C862.349 609.566 744.264 727.611 599.045 727.611C453.826 727.611 335.8 609.566 335.8 464.664C335.8 362.231 395.996 268.411 489.225 225.583C548.582 198.367 574.607 128.114 547.294 68.8377C519.952 9.50111 449.723 -16.4287 390.306 10.847C213.342 92.0459 99 270.205 99 464.664C99 739.993 323.342 964 599.015 964C874.688 964 1099 740.023 1099 464.664C1099 423.72 1094.03 382.986 1084.18 343.508Z" fill="#FFDA4A"/>
<path d="M51.4911 52.3526C45.4854 50.7705 39.432 54.6624 37.935 61.0224L0.332294 222.274C-1.1587 228.64 2.50914 235.076 8.50292 236.652C9.40944 236.886 10.31 237 11.1986 237C16.2203 237 20.7946 233.387 22.053 227.982L59.6677 66.7305C61.1587 60.3579 57.4909 53.9157 51.4971 52.3526" fill="#FBE383"/>
</svg>
